<svg xmlns="http://www.w3.org/2000/svg" viewBox="0 0 219.22 219.22"><defs><style>.cls-1{fill:#fff;}</style></defs><g id="Layer_2" data-name="Layer 2"><g id="Layer_2-2" data-name="Layer 2"><circle cx="109.61" cy="109.61" r="109.61"/><path class="cls-1" d="M134.35,49.7H84.87A35.17,35.17,0,0,0,49.7,84.87v49.48a35.17,35.17,0,0,0,35.17,35.17h49.48a35.17,35.17,0,0,0,35.17-35.17V84.87A35.17,35.17,0,0,0,134.35,49.7ZM158,129.22a28.41,28.41,0,0,1-28.41,28.41h-40a28.41,28.41,0,0,1-28.42-28.41v-40A28.41,28.41,0,0,1,89.63,60.84h40A28.41,28.41,0,0,1,158,89.25Z"/><path class="cls-1" d="M109.61,78.16a31.08,31.08,0,1,0,31.08,31.07A31.08,31.08,0,0,0,109.61,78.16Zm-.17,48.65A17.59,17.59,0,1,1,127,109.22,17.59,17.59,0,0,1,109.44,126.81Z"/><circle class="cls-1" cx="140.69" cy="78.16" r="6.4"/></g></g></svg>