<svg xmlns="http://www.w3.org/2000/svg" viewBox="0 0 332 332"><defs><style>.cls-1{fill:#fff;stroke:#000;stroke-miterlimit:10;}</style></defs><g id="Layer_2" data-name="Layer 2"><g id="Layer_5" data-name="Layer 5"><circle cx="166" cy="166" r="166"/><path class="cls-1" d="M269.74,103c11.14-5.65,19-14.55,21.17-24.85-8.05,5.51-18.55,9.07-30.16,9.71a68.3,68.3,0,0,0-8.68-5.62c-.8-.44-1.6-.85-2.4-1.24A54,54,0,0,0,222,73.5q-1.31,0-2.58.06c-.64,0-1.27.08-1.9.13a54.59,54.59,0,0,0-12,2.34c-.42.11-.84.23-1.25.36a51.52,51.52,0,0,0-11.35,4.84,44.24,44.24,0,0,0-19.86,23.54,46,46,0,0,0-2.47,20.34,42.14,42.14,0,0,1-2.2,4.54c-.34.59-.68,1.19-1,1.77a101.92,101.92,0,0,1-21.35-2,130.24,130.24,0,0,1-19.74-5.56,147.85,147.85,0,0,1-19.91-9c-1.66-.9-3.28-1.84-4.88-2.79q-.8-.46-1.59-1A131.39,131.39,0,0,1,66.76,82.9c-7.08,7.75-11.26,17.28-11.26,27.6,0,.91,0,1.81.1,2.7l.06.55a39.74,39.74,0,0,0,6.68,18.71,54.19,54.19,0,0,0,22.58,18.7,77.53,77.53,0,0,1-28.18-7.74A30.48,30.48,0,0,0,55.5,152c0,11.66,6.74,22.21,17.65,29.89A69.5,69.5,0,0,0,98.5,192.62a85.93,85.93,0,0,1-18,1.88c-2.49,0-4.93-.12-7.34-.32,3.9,18.09,24.65,32.24,50.51,34.11-15.17,13.65-37,22.21-61.17,22.21A100.15,100.15,0,0,1,45.37,249,157.06,157.06,0,0,0,127,271.5c70.36,0,129.2-44.92,143.94-105a123.68,123.68,0,0,0,2.61-44.76c14.13-5.15,24.5-15.09,27.23-27a60.77,60.77,0,0,1-30.91,8.72C269.83,103.33,269.79,103.18,269.74,103Z"/></g></g></svg>