<svg id="Layer_1" data-name="Layer 1" xmlns="http://www.w3.org/2000/svg" xmlns:xlink="http://www.w3.org/1999/xlink" viewBox="0 0 302.25 172.25"><defs><style>.cls-1{fill:url(#linear-gradient);}.cls-2{fill:#007c09;}.cls-3{fill:#fcdf00;}.cls-4{fill:#663411;}.cls-5{fill:url(#linear-gradient-2);}.cls-6{fill:url(#linear-gradient-3);}.cls-7{fill:url(#linear-gradient-4);}.cls-8{fill:url(#linear-gradient-5);}.cls-9{fill:url(#linear-gradient-6);}.cls-10{fill:url(#radial-gradient);}.cls-11{fill:url(#radial-gradient-2);}.cls-12{fill:url(#radial-gradient-3);}.cls-13{fill:url(#linear-gradient-7);}.cls-14{fill:url(#linear-gradient-8);}.cls-15{fill:url(#linear-gradient-9);}.cls-16{fill:url(#radial-gradient-4);}.cls-17{fill:url(#linear-gradient-10);}.cls-18{fill:url(#linear-gradient-11);}.cls-19{fill:url(#linear-gradient-12);}.cls-20{fill:url(#linear-gradient-13);}.cls-21{fill:url(#linear-gradient-14);}.cls-22{fill:url(#linear-gradient-15);}.cls-23{fill:url(#linear-gradient-16);}.cls-24{fill:url(#radial-gradient-5);}.cls-25{fill:url(#radial-gradient-6);}.cls-26{fill:url(#radial-gradient-7);}.cls-27{fill:url(#linear-gradient-17);}.cls-28{fill:url(#linear-gradient-18);}.cls-29{fill:url(#linear-gradient-19);}.cls-30{fill:url(#linear-gradient-20);}.cls-31{fill:url(#linear-gradient-21);}.cls-32{fill:url(#radial-gradient-8);}.cls-33{fill:url(#radial-gradient-9);}.cls-34{fill:url(#radial-gradient-10);}.cls-35{fill:url(#radial-gradient-11);}.cls-36{fill:url(#radial-gradient-12);}.cls-37{fill:url(#radial-gradient-13);}.cls-38{fill:url(#radial-gradient-14);}.cls-39{fill:url(#linear-gradient-22);}.cls-40{fill:url(#linear-gradient-23);}.cls-41{fill:url(#radial-gradient-15);}.cls-42{fill:url(#radial-gradient-16);}.cls-43{fill:url(#radial-gradient-17);}.cls-44{fill:url(#radial-gradient-18);}.cls-45{fill:url(#linear-gradient-24);}.cls-46{fill:url(#linear-gradient-25);}.cls-47{fill:url(#linear-gradient-26);}.cls-48{fill:url(#radial-gradient-19);}.cls-49{fill:url(#radial-gradient-20);}.cls-50{fill:url(#radial-gradient-21);}.cls-51{fill:url(#linear-gradient-27);}.cls-52{fill:url(#radial-gradient-22);}.cls-53{fill:url(#linear-gradient-28);}.cls-54{fill:url(#linear-gradient-29);}.cls-55{fill:url(#linear-gradient-30);}.cls-56{fill:url(#linear-gradient-31);}.cls-57{fill:url(#radial-gradient-23);}.cls-58{fill:url(#radial-gradient-24);}.cls-59{fill:url(#radial-gradient-25);}.cls-60{fill:url(#linear-gradient-32);}.cls-61{fill:url(#radial-gradient-26);}.cls-62{fill:url(#linear-gradient-33);}</style><linearGradient id="linear-gradient" x1="92.74" y1="233.47" x2="394.99" y2="233.47" gradientUnits="userSpaceOnUse"><stop offset="0" stop-color="#fff"/><stop offset="0.02" stop-color="#ffedd8"/><stop offset="0.05" stop-color="#ffd5a7"/><stop offset="0.07" stop-color="#ffc17d"/><stop offset="0.1" stop-color="#ffb05b"/><stop offset="0.13" stop-color="#ffa340"/><stop offset="0.16" stop-color="#ff9a2d"/><stop offset="0.19" stop-color="#ff9522"/><stop offset="0.22" stop-color="#ff931e"/><stop offset="0.26" stop-color="#ff9b2e"/><stop offset="0.46" stop-color="#ffbe77"/><stop offset="0.65" stop-color="#ffdab2"/><stop offset="0.8" stop-color="#ffeedc"/><stop offset="0.92" stop-color="#fffaf5"/><stop offset="0.99" stop-color="#fff"/></linearGradient><linearGradient id="linear-gradient-2" x1="-9.11" y1="-5.74" x2="-7.71" y2="-5.74" gradientTransform="matrix(11.21, -4.52, -4.75, -8.89, 245.06, 153.66)" gradientUnits="userSpaceOnUse"><stop offset="0" stop-color="#663411"/><stop offset="0.38" stop-color="#663411"/><stop offset="0.77" stop-color="#fcdf00"/><stop offset="1" stop-color="#fcdf00"/></linearGradient><linearGradient id="linear-gradient-3" x1="-10.89" y1="6.87" x2="-9.53" y2="6.87" gradientTransform="matrix(2.41, -7.29, -8.75, -1.47, 260.43, 178.01)" gradientUnits="userSpaceOnUse"><stop offset="0" stop-color="#663411"/><stop offset="0.29" stop-color="#663411"/><stop offset="0.9" stop-color="#fcdf00"/><stop offset="1" stop-color="#fcdf00"/></linearGradient><linearGradient id="linear-gradient-4" x1="-7.91" y1="-3.04" x2="-6.38" y2="-3.04" gradientTransform="matrix(13.13, -5.3, -5.56, -10.41, 245.53, 153.46)" gradientUnits="userSpaceOnUse"><stop offset="0" stop-color="#663411"/><stop offset="0.31" stop-color="#663411"/><stop offset="0.73" stop-color="#fcdf00"/><stop offset="1" stop-color="#fcdf00"/></linearGradient><linearGradient id="linear-gradient-5" x1="-2.98" y1="3.4" x2="-1.66" y2="3.4" gradientTransform="matrix(0.26, -22.28, -27.25, 1.36, 248.39, 182.44)" gradientUnits="userSpaceOnUse"><stop offset="0" stop-color="#663411"/><stop offset="0.36" stop-color="#663411"/><stop offset="0.79" stop-color="#fcdf00"/><stop offset="1" stop-color="#fcdf00"/></linearGradient><linearGradient id="linear-gradient-6" x1="-2.95" y1="1.88" x2="-1.59" y2="1.88" gradientTransform="matrix(10.22, -28.34, -33.96, -6.4, 246.26, 182.05)" gradientUnits="userSpaceOnUse"><stop offset="0" stop-color="#fcdf00"/><stop offset="0.18" stop-color="#fcdf00"/><stop offset="0.48" stop-color="#663411"/><stop offset="0.8" stop-color="#663411"/><stop offset="1" stop-color="#fcdf00"/></linearGradient><radialGradient id="radial-gradient" cx="-30.5" cy="11.99" r="1" gradientTransform="matrix(3.89, -1.39, 1.54, 2.48, 264.7, 152.14)" gradientUnits="userSpaceOnUse"><stop offset="0" stop-color="#fff" stop-opacity="0.85"/><stop offset="0.68" stop-color="#fff" stop-opacity="0.5"/><stop offset="1" stop-color="#fff" stop-opacity="0"/></radialGradient><radialGradient id="radial-gradient-2" cx="-24.53" cy="-9.64" r="1" gradientTransform="matrix(4.84, -1.73, -1.92, -3.08, 252.33, 180.23)" gradientUnits="userSpaceOnUse"><stop offset="0" stop-color="#fff" stop-opacity="0.85"/><stop offset="0.42" stop-color="#fff" stop-opacity="0.5"/><stop offset="1" stop-color="#fff" stop-opacity="0"/></radialGradient><radialGradient id="radial-gradient-3" cx="-17.23" cy="6.77" r="1" gradientTransform="matrix(6.89, -2.47, 2.73, 4.39, 254, 179.92)" gradientUnits="userSpaceOnUse"><stop offset="0" stop-color="#341000"/><stop offset="0.5" stop-color="#341000" stop-opacity="0.5"/><stop offset="1" stop-color="#341000" stop-opacity="0"/></radialGradient><linearGradient id="linear-gradient-7" x1="-6.96" y1="15" x2="-5.65" y2="15" gradientTransform="matrix(-2.18, -4.09, -5.15, 2.08, 240.12, 186.53)" gradientUnits="userSpaceOnUse"><stop offset="0" stop-color="#341000"/><stop offset="0.2" stop-color="#341000"/><stop offset="0.39" stop-color="#341000" stop-opacity="0.5"/><stop offset="0.56" stop-color="#341000"/><stop offset="0.71" stop-color="#341000" stop-opacity="0.5"/><stop offset="0.8" stop-color="#341000" stop-opacity="0"/><stop offset="0.96" stop-color="#fcdf00"/><stop offset="1" stop-color="#fcdf00"/></linearGradient><linearGradient id="linear-gradient-8" x1="-10.87" y1="6.87" x2="-9.51" y2="6.87" gradientTransform="matrix(2.41, -7.29, -8.75, -1.47, 260.56, 177.62)" gradientUnits="userSpaceOnUse"><stop offset="0" stop-color="#663411"/><stop offset="0.19" stop-color="#663411"/><stop offset="0.57" stop-color="#fcdf00"/><stop offset="1" stop-color="#fcdf00"/></linearGradient><linearGradient id="linear-gradient-9" x1="5.95" y1="-16.57" x2="7.28" y2="-16.57" gradientTransform="matrix(2, 3.75, 4.73, -1.91, 230.14, 167.84)" gradientUnits="userSpaceOnUse"><stop offset="0" stop-color="#341000" stop-opacity="0.5"/><stop offset="0.16" stop-color="#341000"/><stop offset="0.47" stop-color="#341000"/><stop offset="0.62" stop-color="#341000" stop-opacity="0.5"/><stop offset="0.8" stop-color="#341000" stop-opacity="0"/><stop offset="1" stop-color="#fcdf00"/></linearGradient><radialGradient id="radial-gradient-4" cx="-25.7" cy="-10.1" r="1" gradientTransform="matrix(4.62, -1.65, -1.83, -2.94, 263.41, 150.66)" gradientUnits="userSpaceOnUse"><stop offset="0" stop-color="#341000"/><stop offset="0.54" stop-color="#341000" stop-opacity="0.5"/><stop offset="1" stop-color="#341000" stop-opacity="0"/></radialGradient><linearGradient id="linear-gradient-10" x1="0.15" y1="-4.07" x2="1.51" y2="-4.07" gradientTransform="matrix(16.18, 15.98, 20.69, -14.4, 264.15, 155.07)" gradientUnits="userSpaceOnUse"><stop offset="0" stop-color="#fcdf00"/><stop offset="0.03" stop-color="#fcdf00"/><stop offset="0.92" stop-color="#fcdf00"/><stop offset="0.98" stop-color="#663411"/><stop offset="1" stop-color="#663411"/></linearGradient><linearGradient id="linear-gradient-11" x1="7.87" y1="-25.29" x2="9.35" y2="-25.29" gradientTransform="matrix(1.71, 2.65, 3.36, -1.59, 283.86, 158.26)" gradientUnits="userSpaceOnUse"><stop offset="0" stop-color="#fcdf00"/><stop offset="0.3" stop-color="#fcdf00"/><stop offset="0.4" stop-color="#fcdf00"/><stop offset="0.92" stop-color="#fcdf00"/><stop offset="1" stop-color="#fcdf00"/></linearGradient><linearGradient id="linear-gradient-12" x1="-22.2" y1="2.96" x2="-20.96" y2="2.96" gradientTransform="matrix(2.95, -3.13, -3.63, -2.2, 278.29, 159.23)" gradientUnits="userSpaceOnUse"><stop offset="0" stop-color="#663411"/><stop offset="0.39" stop-color="#663411"/><stop offset="0.43" stop-color="#fcdf00"/><stop offset="1" stop-color="#fcdf00"/></linearGradient><linearGradient id="linear-gradient-13" x1="-5.91" y1="4.1" x2="-4.57" y2="4.1" gradientTransform="matrix(3.01, -11.86, -14.31, -1.64, 274.78, 161.53)" gradientUnits="userSpaceOnUse"><stop offset="0" stop-color="#663411"/><stop offset="0.13" stop-color="#663411"/><stop offset="0.56" stop-color="#fcdf00"/><stop offset="1" stop-color="#fcdf00"/></linearGradient><linearGradient id="linear-gradient-14" x1="4" y1="-5.5" x2="5.3" y2="-5.5" gradientTransform="matrix(1.37, 12.21, 15.04, -1.98, 273.95, 149.86)" gradientUnits="userSpaceOnUse"><stop offset="0" stop-color="#663411"/><stop offset="0.56" stop-color="#663411"/><stop offset="1" stop-color="#fcdf00"/></linearGradient><linearGradient id="linear-gradient-15" x1="1.75" y1="-4.49" x2="3.08" y2="-4.49" gradientTransform="matrix(7.36, 15.24, 19.17, -7.11, 262.81, 156.54)" gradientUnits="userSpaceOnUse"><stop offset="0" stop-color="#fcdf00"/><stop offset="0.02" stop-color="#fcdf00"/><stop offset="0.09" stop-color="#fccf00" stop-opacity="0.8"/><stop offset="0.32" stop-color="#fcc100" stop-opacity="0.5"/><stop offset="0.44" stop-color="#fccf00" stop-opacity="0.2"/><stop offset="0.61" stop-color="#fcc100" stop-opacity="0.5"/><stop offset="0.92" stop-color="#fccf00" stop-opacity="0.5"/><stop offset="0.99" stop-color="#fcde00" stop-opacity="0.98"/><stop offset="0.99" stop-color="#fcdf00"/><stop offset="1" stop-color="#fcdf00"/></linearGradient><linearGradient id="linear-gradient-16" x1="1.99" y1="-4.85" x2="3.32" y2="-4.85" gradientTransform="matrix(6.62, 13.71, 17.25, -6.4, 263.57, 158.11)" gradientUnits="userSpaceOnUse"><stop offset="0" stop-color="#341000" stop-opacity="0"/><stop offset="0.02" stop-color="#341000" stop-opacity="0"/><stop offset="0.14" stop-color="#341000" stop-opacity="0.2"/><stop offset="0.34" stop-color="#341000" stop-opacity="0.5"/><stop offset="0.63" stop-color="#341000" stop-opacity="0.2"/><stop offset="0.86" stop-color="#341000" stop-opacity="0.5"/><stop offset="0.99" stop-color="#341000" stop-opacity="0"/><stop offset="1" stop-color="#341000" stop-opacity="0"/></linearGradient><radialGradient id="radial-gradient-5" cx="-29.25" cy="23.01" r="1" gradientTransform="matrix(3.68, -0.55, 0.32, 2.43, 328.06, 155.9)" xlink:href="#radial-gradient"/><radialGradient id="radial-gradient-6" cx="-22.07" cy="9.57" r="1" gradientTransform="matrix(5.37, -1.78, 1.92, 3.44, 306.13, 138.31)" xlink:href="#radial-gradient-4"/><radialGradient id="radial-gradient-7" cx="-16.84" cy="7.3" r="1" gradientTransform="matrix(7.04, -2.33, 2.52, 4.51, 298.4, 153.42)" xlink:href="#radial-gradient-4"/><linearGradient id="linear-gradient-17" x1="5.13" y1="21.81" x2="6.66" y2="21.81" gradientTransform="matrix(-4.05, -1.74, -2.41, 3.45, 282.11, 170.81)" gradientUnits="userSpaceOnUse"><stop offset="0" stop-color="#fcdf00"/><stop offset="0.01" stop-color="#fcdf00"/><stop offset="0.22" stop-color="#341000" stop-opacity="0"/><stop offset="0.32" stop-color="#341000"/><stop offset="0.7" stop-color="#341000" stop-opacity="0.5"/><stop offset="0.88" stop-color="#341000" stop-opacity="0"/><stop offset="1" stop-color="#341000" stop-opacity="0"/></linearGradient><linearGradient id="linear-gradient-18" x1="-4.98" y1="-4.98" x2="-3.39" y2="-4.98" gradientTransform="matrix(14.2, -1.13, -0.39, -11.58, 289.17, 163.6)" gradientUnits="userSpaceOnUse"><stop offset="0" stop-color="#341000" stop-opacity="0"/><stop offset="0.28" stop-color="#341000"/><stop offset="0.55" stop-color="#341000" stop-opacity="0.5"/><stop offset="0.68" stop-color="#fcdf00"/><stop offset="1" stop-color="#fcdf00"/></linearGradient><linearGradient id="linear-gradient-19" x1="-13.79" y1="-6.06" x2="-12.21" y2="-6.06" gradientTransform="matrix(6.91, -2.56, -2.65, -5.49, 261.76, 147.14)" gradientUnits="userSpaceOnUse"><stop offset="0" stop-color="#fcdf00"/><stop offset="0.01" stop-color="#fcdf00"/><stop offset="0.17" stop-color="#341000" stop-opacity="0.5"/><stop offset="0.42" stop-color="#341000"/><stop offset="0.65" stop-color="#341000"/><stop offset="0.79" stop-color="#341000" stop-opacity="0.5"/><stop offset="0.94" stop-color="#341000" stop-opacity="0"/><stop offset="1" stop-color="#341000" stop-opacity="0"/></linearGradient><linearGradient id="linear-gradient-20" x1="0.16" y1="-22.52" x2="1.53" y2="-22.52" gradientTransform="matrix(3.03, 2.74, 3.56, -2.68, 269.4, 153.16)" gradientUnits="userSpaceOnUse"><stop offset="0" stop-color="#341000"/><stop offset="0.18" stop-color="#341000" stop-opacity="0.5"/><stop offset="0.48" stop-color="#341000" stop-opacity="0"/><stop offset="1" stop-color="#341000" stop-opacity="0"/></linearGradient><linearGradient id="linear-gradient-21" x1="12.74" y1="-13.5" x2="14.02" y2="-13.5" gradientTransform="matrix(0.15, 4.43, 5.44, -0.44, 284.48, 159.7)" gradientUnits="userSpaceOnUse"><stop offset="0" stop-color="#341000"/><stop offset="0.18" stop-color="#341000" stop-opacity="0.5"/><stop offset="0.4" stop-color="#341000" stop-opacity="0"/><stop offset="1" stop-color="#341000" stop-opacity="0"/></linearGradient><radialGradient id="radial-gradient-8" cx="-25.66" cy="11.12" r="1" gradientTransform="matrix(4.62, -1.53, 1.65, 2.96, 305.94, 138.75)" gradientUnits="userSpaceOnUse"><stop offset="0" stop-color="#fff" stop-opacity="0.85"/><stop offset="0.38" stop-color="#fff" stop-opacity="0.5"/><stop offset="1" stop-color="#fff" stop-opacity="0"/></radialGradient><radialGradient id="radial-gradient-9" cx="-32.6" cy="34.45" r="1" gradientTransform="matrix(3.52, -0.82, 0.43, 1.32, 286.49, 141.62)" gradientUnits="userSpaceOnUse"><stop offset="0" stop-color="#fff" stop-opacity="0.85"/><stop offset="0.62" stop-color="#fff" stop-opacity="0.5"/><stop offset="1" stop-color="#fff" stop-opacity="0"/></radialGradient><radialGradient id="radial-gradient-10" cx="-26.05" cy="19.28" r="1" gradientTransform="matrix(4.55, -1.51, 0.95, 1.71, 301.83, 166.86)" gradientUnits="userSpaceOnUse"><stop offset="0" stop-color="#fff" stop-opacity="0.85"/><stop offset="0.42" stop-color="#fff" stop-opacity="0.85"/><stop offset="1" stop-color="#fff" stop-opacity="0"/></radialGradient><radialGradient id="radial-gradient-11" cx="-16.4" cy="7.11" r="1" gradientTransform="matrix(7.23, -2.4, 2.59, 4.63, 298.48, 154.02)" xlink:href="#radial-gradient"/><radialGradient id="radial-gradient-12" cx="-64.32" cy="27.88" r="1" gradientTransform="matrix(1.84, -0.61, 0.66, 1.18, 309.2, 150.21)" gradientUnits="userSpaceOnUse"><stop offset="0" stop-color="#fcffff" stop-opacity="0.85"/><stop offset="0.07" stop-color="#fcffff" stop-opacity="0.85"/><stop offset="1" stop-color="#e0bf03" stop-opacity="0"/></radialGradient><radialGradient id="radial-gradient-13" cx="2.67" cy="-150.78" r="1" gradientTransform="matrix(6.88, 12.31, 0.79, -0.26, 296.36, 153.42)" gradientUnits="userSpaceOnUse"><stop offset="0" stop-color="#341000" stop-opacity="0.5"/><stop offset="1" stop-color="#341000" stop-opacity="0"/></radialGradient><radialGradient id="radial-gradient-14" cx="0.55" cy="-199.68" r="1" gradientTransform="matrix(33.25, 59.48, 0.59, -0.2, 296.2, 153.14)" gradientUnits="userSpaceOnUse"><stop offset="0" stop-color="#fff" stop-opacity="0.7"/><stop offset="0.94" stop-color="#fff" stop-opacity="0"/><stop offset="1" stop-color="#fff" stop-opacity="0"/></radialGradient><linearGradient id="linear-gradient-22" x1="233.47" y1="186.26" x2="268.99" y2="186.26" gradientTransform="matrix(1.18, -0.19, 0.15, 0.97, -67.15, 72.51)" gradientUnits="userSpaceOnUse"><stop offset="0" stop-color="#fcdf00"/><stop offset="0.11" stop-color="#fcdf00"/><stop offset="0.86" stop-color="#663411"/><stop offset="1" stop-color="#663411"/></linearGradient><linearGradient id="linear-gradient-23" x1="234.97" y1="186.16" x2="267.89" y2="186.16" gradientTransform="matrix(1.18, -0.19, 0.15, 0.97, -67.15, 72.51)" gradientUnits="userSpaceOnUse"><stop offset="0" stop-color="#663411"/><stop offset="0.19" stop-color="#663411"/><stop offset="0.85" stop-color="#fcdf00"/><stop offset="1" stop-color="#fcdf00"/></linearGradient><radialGradient id="radial-gradient-15" cx="-16.29" cy="7.85" r="1" gradientTransform="matrix(7.25, -2.18, 2.28, 4.66, 358.84, 147)" gradientUnits="userSpaceOnUse"><stop offset="0" stop-color="#fff" stop-opacity="0.85"/><stop offset="0.4" stop-color="#fff" stop-opacity="0.5"/><stop offset="1" stop-color="#fff" stop-opacity="0"/></radialGradient><radialGradient id="radial-gradient-16" cx="-17.26" cy="8.31" r="1" gradientTransform="matrix(6.84, -2.06, 2.15, 4.4, 364.49, 119.39)" gradientUnits="userSpaceOnUse"><stop offset="0" stop-color="#341000"/><stop offset="0.49" stop-color="#341000" stop-opacity="0.5"/><stop offset="1" stop-color="#341000" stop-opacity="0"/></radialGradient><radialGradient id="radial-gradient-17" cx="-16.82" cy="8.1" r="1" gradientTransform="matrix(7.02, -2.12, 2.2, 4.52, 363.64, 119.42)" xlink:href="#radial-gradient-15"/><radialGradient id="radial-gradient-18" cx="-14.41" cy="16.69" r="1" gradientTransform="matrix(7.13, -0.78, 0.15, 3.65, 356.72, 147.17)" gradientUnits="userSpaceOnUse"><stop offset="0" stop-color="#341000"/><stop offset="0.44" stop-color="#341000" stop-opacity="0.5"/><stop offset="1" stop-color="#341000" stop-opacity="0"/></radialGradient><linearGradient id="linear-gradient-24" x1="-50.65" y1="-78.75" x2="-49.03" y2="-78.75" gradientTransform="matrix(1.03, -0.3, -0.3, -0.83, 331.53, 123.2)" gradientUnits="userSpaceOnUse"><stop offset="0" stop-color="#fcdf00"/><stop offset="0.93" stop-color="#fcdf00"/><stop offset="1" stop-color="#fcdf00"/></linearGradient><linearGradient id="linear-gradient-25" x1="-2.48" y1="1.7" x2="-1.17" y2="1.7" gradientTransform="matrix(-3.16, -19.79, -24.47, 3.96, 346.92, 147.74)" gradientUnits="userSpaceOnUse"><stop offset="0" stop-color="#fcdf00"/><stop offset="0.01" stop-color="#fcdf00"/><stop offset="0.26" stop-color="#663411"/><stop offset="0.82" stop-color="#663411"/><stop offset="0.99" stop-color="#fcdf00"/><stop offset="1" stop-color="#fcdf00"/></linearGradient><linearGradient id="linear-gradient-26" x1="-3.11" y1="1.66" x2="-1.79" y2="1.66" gradientTransform="matrix(0.04, -17.14, -20.99, 1.14, 344.16, 145.91)" gradientUnits="userSpaceOnUse"><stop offset="0" stop-color="#663411"/><stop offset="0.02" stop-color="#663411"/><stop offset="0.35" stop-color="#fcdf00"/><stop offset="0.68" stop-color="#fcdf00"/><stop offset="0.98" stop-color="#663411"/><stop offset="1" stop-color="#663411"/></linearGradient><radialGradient id="radial-gradient-19" cx="-79.35" cy="15.1" r="1" gradientTransform="matrix(1.49, -0.61, 1.19, 1.55, 414.2, 105.59)" gradientUnits="userSpaceOnUse"><stop offset="0" stop-color="#fff" stop-opacity="0.85"/><stop offset="0.73" stop-color="#fff" stop-opacity="0.5"/><stop offset="1" stop-color="#fff" stop-opacity="0"/></radialGradient><radialGradient id="radial-gradient-20" cx="-18.5" cy="44.39" r="1" gradientTransform="matrix(4.18, 0.21, -0.52, 1.71, 406.18, 132.42)" gradientUnits="userSpaceOnUse"><stop offset="0" stop-color="#fff" stop-opacity="0.85"/><stop offset="0.71" stop-color="#fff" stop-opacity="0.5"/><stop offset="1" stop-color="#fff" stop-opacity="0"/></radialGradient><radialGradient id="radial-gradient-21" cx="-18.77" cy="10.12" r="1" gradientTransform="matrix(6.23, -1.67, 1.65, 4.04, 410.79, 117.02)" xlink:href="#radial-gradient-4"/><linearGradient id="linear-gradient-27" x1="-3.21" y1="-11.69" x2="-1.75" y2="-11.69" gradientTransform="matrix(-4.24, -2.62, 3.97, -3.57, 348.05, 129.1)" gradientUnits="userSpaceOnUse"><stop offset="0" stop-color="#fcdf00"/><stop offset="0.01" stop-color="#fcdf00"/><stop offset="0.13" stop-color="#341000" stop-opacity="0"/><stop offset="0.29" stop-color="#341000"/><stop offset="0.8" stop-color="#341000" stop-opacity="0.5"/><stop offset="1" stop-color="#341000" stop-opacity="0"/></linearGradient><radialGradient id="radial-gradient-22" cx="-20.47" cy="11.04" r="1" gradientTransform="matrix(5.71, -1.53, 1.51, 3.7, 409.6, 118.53)" gradientUnits="userSpaceOnUse"><stop offset="0" stop-color="#fff" stop-opacity="0.85"/><stop offset="0.46" stop-color="#fff" stop-opacity="0.5"/><stop offset="1" stop-color="#fff" stop-opacity="0"/></radialGradient><linearGradient id="linear-gradient-28" x1="3.75" y1="-13.2" x2="5.2" y2="-13.2" gradientTransform="matrix(3.8, 2.95, 3.87, -3.32, 340.81, 145.5)" gradientUnits="userSpaceOnUse"><stop offset="0" stop-color="#fcdf00"/><stop offset="0.11" stop-color="#341000"/><stop offset="0.54" stop-color="#341000" stop-opacity="0.5"/><stop offset="1" stop-color="#341000" stop-opacity="0"/></linearGradient><linearGradient id="linear-gradient-29" x1="-33.88" y1="-81.64" x2="-32.27" y2="-81.64" gradientTransform="matrix(1.05, -0.26, -0.25, -0.84, 357.99, 115.72)" xlink:href="#linear-gradient-24"/><linearGradient id="linear-gradient-30" x1="-2.49" y1="0.95" x2="-1.17" y2="0.95" gradientTransform="matrix(-1.97, -19.96, -24.6, 2.97, 371.85, 140.92)" xlink:href="#linear-gradient-25"/><linearGradient id="linear-gradient-31" x1="-3.01" y1="0.79" x2="-1.69" y2="0.79" gradientTransform="matrix(1.07, -17.17, -20.97, 0.3, 369.21, 138.98)" xlink:href="#linear-gradient-26"/><radialGradient id="radial-gradient-23" cx="-78.05" cy="17.44" r="1" gradientTransform="matrix(1.52, -0.57, 1.07, 1.6, 456.07, 95.39)" xlink:href="#radial-gradient-19"/><radialGradient id="radial-gradient-24" cx="-17.19" cy="45.88" gradientTransform="matrix(4.13, 0.35, -0.64, 1.7, 446.17, 122.09)" xlink:href="#radial-gradient-20"/><radialGradient id="radial-gradient-25" cx="-18.26" cy="11.04" r="1" gradientTransform="matrix(6.3, -1.47, 1.35, 4.11, 451.85, 106.76)" xlink:href="#radial-gradient-4"/><linearGradient id="linear-gradient-32" x1="-5.35" y1="-9.32" x2="-3.9" y2="-9.32" gradientTransform="matrix(-4.06, -2.8, 4.17, -3.42, 374.08, 122.3)" xlink:href="#linear-gradient-27"/><radialGradient id="radial-gradient-26" cx="-19.91" cy="12.04" r="1" gradientTransform="matrix(5.78, -1.35, 1.24, 3.77, 450.56, 108.24)" xlink:href="#radial-gradient-22"/><linearGradient id="linear-gradient-33" x1="5.84" y1="-10.54" x2="7.27" y2="-10.54" gradientTransform="matrix(3.61, 3.11, 4.06, -3.17, 365.89, 138.44)" xlink:href="#linear-gradient-28"/></defs><path class="cls-1" d="M145.39,262.24c-6-40.57,65.65-84.73,160-98.63,32.22-4.75,62.92-5.34,89.62-2.46-34.51-13.27-82.9-16.45-135.71-11.77C162,158,87.31,208.79,93.05,255s89.48,73.85,187,61.73q10.76-1.33,21.11-3.23C218.27,320.27,150.82,299.06,145.39,262.24Z" transform="translate(-92.74 -147.34)"/><path class="cls-2" d="M195.48,282.58h-8.62v7.13h9.61v2.15H184v-19.8h12v2.14h-9.12v6.26h8.62Z" transform="translate(-92.74 -147.34)"/><path class="cls-2" d="M201,277.64l3.12,8a33.48,33.48,0,0,1,1.29,3.64h.1c.36-1.17.82-2.35,1.34-3.64l3.1-8h3l-6.25,14.22h-2.76l-6.06-14.22Z" transform="translate(-92.74 -147.34)"/><path class="cls-2" d="M217,285.22c.06,3.5,2.56,4.94,5.46,4.94a11.61,11.61,0,0,0,4.41-.74l.49,1.85a14.25,14.25,0,0,1-5.29.88c-4.91,0-7.84-2.88-7.84-7.17s2.83-7.66,7.47-7.66c5.2,0,6.58,4.08,6.58,6.7a9.54,9.54,0,0,1-.09,1.2Zm8.49-1.85c0-1.65-.76-4.2-4-4.2a4.51,4.51,0,0,0-4.44,4.2Z" transform="translate(-92.74 -147.34)"/><path class="cls-2" d="M231.84,281.49c0-1.47,0-2.67-.13-3.85h2.56l.17,2.35h.07a6,6,0,0,1,5.26-2.67c2.2,0,5.63,1.17,5.63,6.05v8.49h-2.9v-8.2c0-2.29-.95-4.2-3.69-4.2a4.08,4.08,0,0,0-3.88,2.65,3.36,3.36,0,0,0-.19,1.2v8.55h-2.9Z" transform="translate(-92.74 -147.34)"/><path class="cls-2" d="M253.46,273.56v4.08h4.14v2h-4.14v7.67c0,1.76.56,2.76,2.17,2.76a7.15,7.15,0,0,0,1.68-.18l.13,1.94a7.78,7.78,0,0,1-2.57.35,4.28,4.28,0,0,1-3.12-1.08c-.83-.77-1.12-2-1.12-3.71v-7.75h-2.47v-2h2.47v-3.41Z" transform="translate(-92.74 -147.34)"/><path class="cls-2" d="M267.93,272.29a38.11,38.11,0,0,1,5.5-.38c2.83,0,4.9.59,6.22,1.65a5.06,5.06,0,0,1,1.94,4.14,5.48,5.48,0,0,1-1.71,4.23,9.86,9.86,0,0,1-6.78,2.17,11.41,11.41,0,0,1-2.3-.17v7.93h-2.87Zm2.87,9.55a10.44,10.44,0,0,0,2.37.21c3.45,0,5.56-1.5,5.56-4.23s-2.08-3.88-5.23-3.88a14.05,14.05,0,0,0-2.7.2Z" transform="translate(-92.74 -147.34)"/><path class="cls-2" d="M285.17,271h2.9v20.86h-2.9Z" transform="translate(-92.74 -147.34)"/><path class="cls-2" d="M301.76,291.86l-.23-1.79h-.1a6.21,6.21,0,0,1-4.87,2.11c-3.23,0-4.87-2-4.87-4.08,0-3.44,3.42-5.32,9.57-5.29v-.29c0-1.18-.36-3.29-3.62-3.29a8.7,8.7,0,0,0-4.14,1l-.66-1.7a10.86,10.86,0,0,1,5.23-1.26c4.87,0,6.06,3,6.06,5.81v5.32a17.71,17.71,0,0,0,.26,3.41Zm-.43-7.26c-3.16-.06-6.75.44-6.75,3.21a2.44,2.44,0,0,0,2.74,2.46,3.93,3.93,0,0,0,3.84-2.38,2.4,2.4,0,0,0,.17-.82Z" transform="translate(-92.74 -147.34)"/><path class="cls-2" d="M308.8,281.49c0-1.47,0-2.67-.13-3.85h2.56l.17,2.35h.06a6,6,0,0,1,5.27-2.67c2.2,0,5.62,1.17,5.62,6.05v8.49h-2.89v-8.2c0-2.29-1-4.2-3.69-4.2a4.07,4.07,0,0,0-3.88,2.65,3.35,3.35,0,0,0-.2,1.2v8.55H308.8Z" transform="translate(-92.74 -147.34)"/><path class="cls-2" d="M327.06,281.49c0-1.47,0-2.67-.13-3.85h2.56l.17,2.35h.06a6,6,0,0,1,5.27-2.67c2.2,0,5.63,1.17,5.63,6.05v8.49h-2.9v-8.2c0-2.29-1-4.2-3.68-4.2a4.08,4.08,0,0,0-3.89,2.65,3.36,3.36,0,0,0-.19,1.2v8.55h-2.9Z" transform="translate(-92.74 -147.34)"/><path class="cls-2" d="M348.54,273.64c0,.89-.69,1.59-1.84,1.59a1.63,1.63,0,0,1-1.74-1.59,1.68,1.68,0,0,1,1.81-1.61A1.62,1.62,0,0,1,348.54,273.64Zm-3.22,18.22V277.64h2.9v14.22Z" transform="translate(-92.74 -147.34)"/><path class="cls-2" d="M353,281.49c0-1.47,0-2.67-.13-3.85h2.56l.17,2.35h.06a6,6,0,0,1,5.27-2.67c2.2,0,5.62,1.17,5.62,6.05v8.49h-2.89v-8.2c0-2.29-.95-4.2-3.69-4.2a4.08,4.08,0,0,0-3.88,2.65,3.35,3.35,0,0,0-.2,1.2v8.55H353Z" transform="translate(-92.74 -147.34)"/><path class="cls-2" d="M385,277.64c-.07,1-.13,2.17-.13,3.91v8.25c0,3.26-.73,5.26-2.27,6.5a9.15,9.15,0,0,1-5.79,1.7,11.19,11.19,0,0,1-5.3-1.18l.72-2a9.94,9.94,0,0,0,4.68,1.11c3,0,5.13-1.38,5.13-5v-1.59H382a5.87,5.87,0,0,1-5.06,2.38,6.67,6.67,0,0,1-6.78-6.93,7.16,7.16,0,0,1,7.17-7.55,5.43,5.43,0,0,1,5,2.46h.06l.14-2.14Zm-3,5.61a3.31,3.31,0,0,0-.17-1.17,4.13,4.13,0,0,0-4-2.74c-2.76,0-4.73,2.09-4.73,5.38,0,2.79,1.58,5.11,4.7,5.11a4.23,4.23,0,0,0,4-2.64,4.16,4.16,0,0,0,.23-1.38Z" transform="translate(-92.74 -147.34)"/><path class="cls-3" d="M168.25,250.46a49.46,49.46,0,0,1-10.47,2.65A30.88,30.88,0,0,1,149,253c-5.63-.89-9.77-3.41-12.32-7.5a10.26,10.26,0,0,1-1.46-4.64,10.82,10.82,0,0,1,1.65-6.42c2.25-3.7,6.69-6.7,13.58-9.16a67.55,67.55,0,0,1,7.74-2.29c1.13-.25,5.09-1.18,6-1.52a.69.69,0,0,1,.34,0,.22.22,0,0,1,.15.16l0,.07c.13.55.36,1.46,2.12,4.28.41.66.21.75.19.76s-.28-.17-.54-.51l0,0a7,7,0,0,0-1.53-1.45c-1-.65-2.88-.78-5.52-.39a46.89,46.89,0,0,0-8.59,2.28,31,31,0,0,0-7.37,3.6,11.1,11.1,0,0,0-3.05,3.08,7.71,7.71,0,0,0-1.31,5.26,12.32,12.32,0,0,0,2,5,12.79,12.79,0,0,0,4.2,4.06,19.82,19.82,0,0,0,6.23,2.48A28.81,28.81,0,0,0,167.33,249c4-1.42,8-3,9-5.62a3.45,3.45,0,0,0,0-1.91l-.06-.37V241c-.06-.35-.09-.5,0-.53h0c.08,0,.2.2.31.46l0,.09a20.38,20.38,0,0,1,1.2,4c.07.63,0,.72-.54,1.15a40.71,40.71,0,0,1-9.05,4.24" transform="translate(-92.74 -147.34)"/><path class="cls-4" d="M173,247.65l-.51-.81-.1,0,.51.81.1,0" transform="translate(-92.74 -147.34)"/><path class="cls-5" d="M177.83,245.72a1.2,1.2,0,0,0,0-.65,24.62,24.62,0,0,0-1.23-4.11c-.11-.29-.25-.52-.36-.48h0c1.14,2.67.49,4.19,0,5.08.54,0,1.05.08,1.54.15" transform="translate(-92.74 -147.34)"/><path class="cls-6" d="M176.29,245.57c.45-.89,1.1-2.41,0-5.08-.08.06-.1.24,0,.61a4.33,4.33,0,0,1,.13,2.25c-.59,1.42-2.06,2.54-3.9,3.49l.53.85a13,13,0,0,0,3.31-2.12" transform="translate(-92.74 -147.34)"/><path class="cls-7" d="M164.56,221.45a15.19,15.19,0,0,1-1.35,1.63h0a8.05,8.05,0,0,1,3.84,3.65c.08-.07.1-.27-.2-.77-1.85-3-2-3.83-2.14-4.35a.24.24,0,0,0-.15-.16" transform="translate(-92.74 -147.34)"/><path class="cls-8" d="M167.32,249c-11.08,4-22.28.93-26.2-5.37-2.1-3.36-3.05-6.6-.7-10.26,1.11-1.77,3.52-4.21,10.4-6.67,6.16-2.2,12.11-3.12,14.16-1.76a6.2,6.2,0,0,1,1.46,1.33c.34.44.48.55.58.52l0,0a8.05,8.05,0,0,0-3.84-3.65,42.67,42.67,0,0,0-12.64,2.86c-13.31,4.76-15.69,11.91-11.55,18.56,5.07,8.14,17.74,9.27,28.74,5.34a50,50,0,0,0,5.22-2.15l-.53-.85a42.64,42.64,0,0,1-5.13,2.13" transform="translate(-92.74 -147.34)"/><path class="cls-9" d="M173,247.69a50,50,0,0,1-5.22,2.15c-11,3.93-23.67,2.8-28.74-5.34-4.14-6.65-1.76-13.8,11.55-18.56,1.85-.66,3.51-1.18,5-1.59a34.64,34.64,0,0,1,7.62-1.27h0a15.19,15.19,0,0,0,1.35-1.63.58.58,0,0,0-.38,0c-.93.33-4.85,1.25-6,1.51-1,.22-2,.48-2.95.75-1.77.5-3.47,1.06-4.81,1.54-8,2.85-11.71,6.09-13.59,9.17a10.48,10.48,0,0,0-.19,11.07c1.95,3.13,5.53,6.45,12.34,7.52,5.55.87,11.54.22,19.3-2.56,1.7-.61,3.52-1.33,5.16-2.09a24.11,24.11,0,0,0,3.9-2.16,1.83,1.83,0,0,0,.51-.51c-.49-.07-1-.12-1.54-.15a13,13,0,0,1-3.31,2.12" transform="translate(-92.74 -147.34)"/><path class="cls-10" d="M163.21,223.08a34.1,34.1,0,0,0-7,1.1l.47.76c3.77-.84,6.9-.95,8.27,0a6.2,6.2,0,0,1,1.46,1.33c.34.44.48.55.58.52l0,0a8.05,8.05,0,0,0-3.84-3.65" transform="translate(-92.74 -147.34)"/><path class="cls-11" d="M140.62,246.59l-2.54.91c2.14,2.44,5.5,4.69,10.88,5.54s11.31.24,18.86-2.41l-.41-.67c-9.9,3.43-21,2.77-26.79-3.37" transform="translate(-92.74 -147.34)"/><path class="cls-12" d="M167.32,249c-10.86,3.89-21.84,1-26-5l-2.18.78c5.16,7.92,17.69,9,28.58,5.1l1.06-.39-.52-.84-1,.35" transform="translate(-92.74 -147.34)"/><path class="cls-13" d="M177.83,245.72a1.2,1.2,0,0,0,0-.65,24.62,24.62,0,0,0-1.23-4.11c-.11-.29-.25-.52-.36-.48h0c1.14,2.67.49,4.19,0,5.08.54,0,1.05.08,1.54.15" transform="translate(-92.74 -147.34)"/><path class="cls-14" d="M176.29,245.57c.45-.89,1.1-2.41,0-5.08-.08.06-.1.24,0,.61a4.33,4.33,0,0,1,.13,2.25c-.59,1.42-2.06,2.54-3.9,3.49l.53.85a13,13,0,0,0,3.31-2.12" transform="translate(-92.74 -147.34)"/><path class="cls-15" d="M164.56,221.45a15.19,15.19,0,0,1-1.35,1.63h0a8.05,8.05,0,0,1,3.84,3.65c.08-.07.1-.27-.2-.77-1.85-3-2-3.83-2.14-4.35a.24.24,0,0,0-.15-.16" transform="translate(-92.74 -147.34)"/><path class="cls-16" d="M155.59,224.35a34.64,34.64,0,0,1,7.62-1.27h0a15.19,15.19,0,0,0,1.35-1.63.58.58,0,0,0-.38,0c-.93.33-4.85,1.25-6,1.51-1,.22-2,.48-2.95.75l-.11,0,.38.61.11,0" transform="translate(-92.74 -147.34)"/><path class="cls-3" d="M195.37,211.64A24.4,24.4,0,0,0,192,213l0,0c-.22.15-.37.25-.24.49L198,224.76c.07.14.23.17.44.19a23.12,23.12,0,0,0,5.9-1.4,9,9,0,0,0,3.59-2c1.52-1.55,1.64-3.88.32-6.24a8.52,8.52,0,0,0-5.2-4.13,13.07,13.07,0,0,0-7.66.41m35.56,17a17.32,17.32,0,0,1-6,1.21c-2.47,0-5-.91-8.84-2.25l-1-.35c-1.77-.61-3.66-1.3-5.33-1.92-1.34-.49-2.5-.92-3.23-1.17a.79.79,0,0,0-.49,0l-7,2.23c-.18.06-.19.08-.11.22l.52.94a68.23,68.23,0,0,0,4.35,7.19,3.13,3.13,0,0,0,3.29,1.47,14,14,0,0,0,1.59-.44l.46-.16.35-.11c.29-.1.42-.09.44-.05s0,.13-1.06.49c-1.9.63-4.21,1.33-5.32,1.66l-.66.2-.87.31c-1.16.42-3.1,1.13-4.21,1.5-.78.25-.87.17-.88.15s.05-.12.34-.22a10.75,10.75,0,0,0,1.55-.59c1-.5.62-1.7.31-2.67a63.52,63.52,0,0,0-3.82-7.36l-3.3-5.91c-2.93-5.23-3.44-6.18-4.14-7.22a3,3,0,0,0-3.56-1.42,14,14,0,0,0-1.5.42c-.54.17-.68.17-.7.13s.14-.19.74-.39c1.87-.62,4-1.26,5.14-1.6l.85-.26,1.75-.62c1.42-.51,3.36-1.2,4.38-1.53,3.15-1.05,6.85-2.07,10.4-1.7,1.69.17,4.88,1.07,6.16,3.35,1.52,2.73.88,5.86-2,9.84,0,0,0,0,0,0l2.24.76c5.25,1.76,9.78,3.28,13.47,4.22,3.36.84,5.87,1,7.9.53a18.19,18.19,0,0,0,2.1-.58c.37-.12.49-.07.5-.05s-.08.17-1.16.53l-3.73,1.23" transform="translate(-92.74 -147.34)"/><path class="cls-3" d="M205,236.69a11.46,11.46,0,0,1-2.85-.36,9,9,0,0,1-1.52,1.78c-.89.8-1.74,1-3.64,1.67,0,0,.19.08.91-.16,1.57-.52,4.82-1.71,5.08-1.8s3.46-1,6-1.86c1.1-.37,1.1-.49,1.08-.52-2.78.92-3.62,1.25-5,1.25" transform="translate(-92.74 -147.34)"/><path class="cls-17" d="M186.73,213.84a15,15,0,0,0-4.57,1.07v0c0,.06.27,0,.74-.13a14,14,0,0,1,1.51-.42,3,3,0,0,1,3.52,1.42c.71,1,1.23,2,4.16,7.21l2.15,3.84,1.15,2.07a65.42,65.42,0,0,1,3.81,7.37c.33,1,.65,2.17-.32,2.65a12.28,12.28,0,0,1-1.54.59c-.36.12-.38.2-.36.24h0c1.9-.63,2.75-.87,3.64-1.67a9,9,0,0,0,1.52-1.78l-5.6-10-6.8-12.16a13.75,13.75,0,0,0-3-.32" transform="translate(-92.74 -147.34)"/><path class="cls-18" d="M224.29,228.35c-4.85-1.22-12.79-4-15.79-5.12-.47.15-1.71.21-2.59.41s-4.66,1.49-7.86,2.36l1,.48s0,0,.13-.08l7-2.22a.64.64,0,0,1,.46,0c1.61.54,5.33,2,8.57,3.09,4.39,1.53,7.15,2.56,9.84,2.59a17.24,17.24,0,0,0,6-1.22l3.73-1.24c1.13-.37,1.21-.48,1.18-.55-2.3.77-6.92,2.62-11.55,1.46" transform="translate(-92.74 -147.34)"/><path class="cls-19" d="M209.56,235.48a19.77,19.77,0,0,1-2.39.71,3.07,3.07,0,0,1-3.25-1.47,67.35,67.35,0,0,1-4.33-7.19l-.53-.94a.41.41,0,0,1-.05-.11l-1-.48v-1.26l-6.29-11.24a.25.25,0,0,1,0-.23l-.8-.45a4.11,4.11,0,0,0-1.16,1.34l6.8,12.16,5.6,10a11.46,11.46,0,0,0,2.85.36c1.42,0,2.26-.33,5-1.25,0,0-.11-.08-.48,0" transform="translate(-92.74 -147.34)"/><path class="cls-20" d="M195.25,211.07a19.55,19.55,0,0,0-4.34,1.75l.8.45c0-.09.14-.15.27-.24a21.68,21.68,0,0,1,3.4-1.37c5.61-1.86,10.48-.49,12.82,3.71,1.43,2.55,1.08,4.81-.31,6.22a8.81,8.81,0,0,1-3.57,1.94,23.47,23.47,0,0,1-5.88,1.39.47.47,0,0,1-.4-.16V226c3.2-.87,7-2.17,7.86-2.36s2.12-.26,2.59-.41c.09,0,0-.68.12-.94,1-1.48,3.22-5.12,1.07-9-1.89-3.39-7.18-4.67-14.44-2.26" transform="translate(-92.74 -147.34)"/><path class="cls-4" d="M235.31,227a21.56,21.56,0,0,1-2.1.57c-1.65.39-4,.45-7.88-.53-4.2-1.07-9.44-2.88-15.71-5l-1,.27c-.09.25,0,.91-.12.94,3,1.13,10.94,3.9,15.79,5.12,4.63,1.16,9.25-.69,11.55-1.46h0s-.16-.07-.53.06" transform="translate(-92.74 -147.34)"/><path class="cls-21" d="M205.46,208.8c-3.49-.36-7.12.61-10.42,1.7-1.63.54-5.56,2-6.13,2.15-.37.12-3.42,1-6,1.86-.6.2-.79.33-.77.41a14.8,14.8,0,0,1,4.57-1.08,13.75,13.75,0,0,1,3,.32,4.11,4.11,0,0,1,1.16-1.34,19.55,19.55,0,0,1,4.34-1.75c7.26-2.41,12.55-1.13,14.44,2.26,2.15,3.84-.09,7.46-1.07,9l1-.27c3.16-4.35,3.4-7.38,2-9.86-1.29-2.31-4.52-3.19-6.17-3.36" transform="translate(-92.74 -147.34)"/><path class="cls-22" d="M187.82,215.64l.12.17c.7,1,1.22,2,4.15,7.2l3.3,5.91c1.59,2.84,2.93,5.23,3.59,6.8l2.38-.79-11.21-20.06-2.33.77" transform="translate(-92.74 -147.34)"/><path class="cls-23" d="M199.06,226.59a.41.41,0,0,1-.05-.11l-1-.48v-1.26L193.11,216l-2,.66,5.43,9.71,4.93,8.81,2.2-.72a79.94,79.94,0,0,1-4.09-6.88l-.53-.94" transform="translate(-92.74 -147.34)"/><path class="cls-24" d="M224.29,228.35c-.76-.19-1.6-.42-2.49-.68l-1.2,1.47a16.33,16.33,0,0,0,4.37.76,17.24,17.24,0,0,0,6-1.22l3.73-1.24c1.13-.37,1.21-.48,1.18-.55-2.3.77-6.92,2.62-11.55,1.46" transform="translate(-92.74 -147.34)"/><path class="cls-25" d="M211.63,212.16c-1.29-2.31-4.52-3.19-6.17-3.36a21.6,21.6,0,0,0-8,.94l.34.6c5.91-1.33,10.18,0,11.84,3,.08.14.15.29.22.43l2.08-.85a5.17,5.17,0,0,0-.36-.75" transform="translate(-92.74 -147.34)"/><path class="cls-26" d="M204.32,223.53a23.47,23.47,0,0,1-5.88,1.39.47.47,0,0,1-.4-.16V226c3.2-.87,7-2.17,7.86-2.36H206l-.25-.64a14.65,14.65,0,0,1-1.42.54" transform="translate(-92.74 -147.34)"/><path class="cls-27" d="M209.56,235.48a19.77,19.77,0,0,1-2.39.71,3.07,3.07,0,0,1-3.25-1.47,16.36,16.36,0,0,1-.94-1.34l-1.87,1.09,1,1.86a11.46,11.46,0,0,0,2.85.36c1.42,0,2.26-.33,5-1.25,0,0-.11-.08-.48,0" transform="translate(-92.74 -147.34)"/><path class="cls-28" d="M235.31,227a21.56,21.56,0,0,1-2.1.57c-1.65.39-4,.45-7.88-.53-2.25-.57-4.79-1.36-7.63-2.28l-.76,1.45c2.6.85,5.26,1.67,7.35,2.19,4.63,1.16,9.25-.69,11.55-1.46h0s-.16-.07-.53.06" transform="translate(-92.74 -147.34)"/><path class="cls-29" d="M188.91,212.65c-.37.12-3.42,1-6,1.86-.6.2-.79.33-.77.41a14.8,14.8,0,0,1,4.57-1.08,13.75,13.75,0,0,1,3,.32,4.11,4.11,0,0,1,1.16-1.34,9.33,9.33,0,0,1,2.44-1.11l-.13-.58-4.31,1.52" transform="translate(-92.74 -147.34)"/><path class="cls-30" d="M190.64,213.05a3.88,3.88,0,0,0-.89,1.11l2.44,4.37,1.74-1.11-2.16-3.87-1.13-.5" transform="translate(-92.74 -147.34)"/><path class="cls-31" d="M209.62,222l-1,.27c-.09.25,0,.91-.12.94,1.7.64,5,1.82,8.44,2.93l.76-1.45c-2.47-.81-5.17-1.72-8.08-2.69" transform="translate(-92.74 -147.34)"/><path class="cls-32" d="M209.69,213.33c-1.66-3-5.91-4.31-11.8-3l.37.65c4-.56,7.43.7,9.45,3.61l2.24-.75c-.08-.17-.16-.34-.26-.51" transform="translate(-92.74 -147.34)"/><path class="cls-33" d="M189.75,214.16a13.75,13.75,0,0,0-3-.32,15,15,0,0,0-4.57,1.07v0c0,.06.27,0,.74-.13a14,14,0,0,1,1.51-.42,3,3,0,0,1,3.4,1.24l2.32-.77-.38-.69" transform="translate(-92.74 -147.34)"/><path class="cls-34" d="M205,236.69a11.46,11.46,0,0,1-2.85-.36,9,9,0,0,1-1.52,1.78c-.89.8-1.74,1-3.64,1.67,0,0,.19.08.91-.16,1.57-.52,4.82-1.71,5.08-1.8s3.46-1,6-1.86c1.1-.37,1.1-.49,1.08-.52-2.78.92-3.62,1.25-5,1.25" transform="translate(-92.74 -147.34)"/><path class="cls-35" d="M198.05,226l1,.48s0,0,.13-.08l7-2.22h0l-.23-.52c-.89.21-4.67,1.49-7.83,2.35" transform="translate(-92.74 -147.34)"/><path class="cls-36" d="M208.62,222.29l1-.27a22.67,22.67,0,0,0,1.41-2.19H210a14.43,14.43,0,0,1-1.33,2.47" transform="translate(-92.74 -147.34)"/><path class="cls-37" d="M209.56,235.48a19.77,19.77,0,0,1-2.39.71,3.07,3.07,0,0,1-3.25-1.47,67.35,67.35,0,0,1-4.33-7.19l-.53-.94a.41.41,0,0,1-.05-.11l-1-.48v-1.26l-6.29-11.24a.25.25,0,0,1,0-.23l-.8-.45a4.11,4.11,0,0,0-1.16,1.34l6.8,12.16,5.6,10a11.46,11.46,0,0,0,2.85.36c1.42,0,2.26-.33,5-1.25,0,0-.11-.08-.48,0" transform="translate(-92.74 -147.34)"/><path class="cls-38" d="M186.73,213.84a15,15,0,0,0-4.57,1.07v0c0,.06.27,0,.74-.13a14,14,0,0,1,1.51-.42,3,3,0,0,1,3.52,1.42c.71,1,1.23,2,4.16,7.21l2.15,3.84,1.15,2.07a65.42,65.42,0,0,1,3.81,7.37c.33,1,.65,2.17-.32,2.65a12.28,12.28,0,0,1-1.54.59c-.36.12-.38.2-.36.24h0c1.9-.63,2.75-.87,3.64-1.67a9,9,0,0,0,1.52-1.78l-5.6-10-6.8-12.16a13.75,13.75,0,0,0-3-.32" transform="translate(-92.74 -147.34)"/><path class="cls-3" d="M252.59,193c-4.54,1.37-7.91,3.5-9.73,6.17a8.64,8.64,0,0,0-1.55,4.51,11,11,0,0,0,1.23,5.28,15.08,15.08,0,0,0,4,5,16.94,16.94,0,0,0,5.62,3A23.4,23.4,0,0,0,266,217a18.07,18.07,0,0,0,8.1-4.9,9,9,0,0,0,2.18-4.75,11.57,11.57,0,0,0-1.32-6.53,15.21,15.21,0,0,0-9.53-7.92,22.33,22.33,0,0,0-12.82.16m12.57,25.64a35.16,35.16,0,0,1-10,1.59,24.17,24.17,0,0,1-7.94-1.25,15.82,15.82,0,0,1-9.25-7.56,11,11,0,0,1,.69-10.25c1.67-2.91,5.41-6.91,13.71-9.41a38.52,38.52,0,0,1,8.73-1.62,27.76,27.76,0,0,1,7.85.54c5,1.14,8.66,3.76,10.53,7.6a11.26,11.26,0,0,1-1,11.6,18.64,18.64,0,0,1-5.22,5,30.52,30.52,0,0,1-8.16,3.73" transform="translate(-92.74 -147.34)"/><path class="cls-39" d="M266.37,217.6c-10.16,3.07-21.6,1.63-25.91-7.2-4.05-8.32,2.44-15.16,11.82-18s20.68-1.88,25.3,7.59c4.71,9.66-6.16,16.08-11.21,17.6m-14-25.85c-14.67,4.42-17.12,14.15-14.42,19.69,3,6.16,12.62,11.62,27.19,7.23,12.8-3.87,18.11-12.73,14.38-20.39-3.89-8-15.19-10.14-27.15-6.53" transform="translate(-92.74 -147.34)"/><path class="cls-40" d="M266,216.93c-9.57,2.89-19.51,0-23.4-8-3.66-7.49,1.15-13.26,10-15.94,8.4-2.53,18.31-.45,22.32,7.76,4.86,9.95-4.16,14.71-8.94,16.15m-13.69-24.52c-9.38,2.83-15.87,9.67-11.82,18,4.31,8.83,15.74,10.27,25.91,7.2,5.05-1.52,15.92-7.94,11.21-17.6-4.62-9.47-16-10.4-25.3-7.59" transform="translate(-92.74 -147.34)"/><path class="cls-41" d="M266.37,217.6c-5.61,1.69-11.61,2-16.58.47l-1,1.39c4.39,1.16,9.91,1.17,16.43-.79A33.75,33.75,0,0,0,269.6,217l-.28-.58a19.2,19.2,0,0,1-2.95,1.18" transform="translate(-92.74 -147.34)"/><path class="cls-42" d="M252.4,191.75c-.47.14-.93.29-1.37.44l.26.54,1-.32c6.21-1.87,13.33-2.08,18.76.79l2.69-.81c-5.4-2.88-13.22-3.09-21.33-.64" transform="translate(-92.74 -147.34)"/><path class="cls-43" d="M269.74,194.89l2.74-.83c-5.55-3.75-13.39-3.69-20.16-1.66l.3.62c5.8-1.75,12.33-1.29,17.12,1.87" transform="translate(-92.74 -147.34)"/><path class="cls-44" d="M248.51,215.38l-1.24,1.71c5.33,2.57,12.38,2.5,18.93.56l-.34-.69c-6.22,1.85-12.59,1.26-17.35-1.58" transform="translate(-92.74 -147.34)"/><path class="cls-3" d="M312.85,205a26.25,26.25,0,0,1-7.89,1c-.56-.05-.65-.17-.8-.54A25.07,25.07,0,0,1,303,202c0-.17-.08-.31-.12-.43-.09-.38-.07-.59.08-.62s.12.09.23.34a.76.76,0,0,0,0,.11,5,5,0,0,0,1,1.69c1.14,1.2,5.37,1.33,9.24.29,5.2-1.39,6.58-4.44,5.66-6.69a5.38,5.38,0,0,0-2.52-2.82,22.67,22.67,0,0,0-6-1.95l-2.95-.64a25.41,25.41,0,0,1-7.33-2.47,6.26,6.26,0,0,1-2.84-3.12,4.84,4.84,0,0,1,1.15-5.33c1.52-1.67,4.09-3,7.41-3.91a33.19,33.19,0,0,1,5.15-1,17.89,17.89,0,0,0,2.35-.39.33.33,0,0,1,.24,0,.13.13,0,0,1,.08.13,8.26,8.26,0,0,0,.93,3.16c.37.89.21,1,.15,1s-.24-.19-.43-.56l0-.06a3,3,0,0,0-1.3-1.29c-.21-.11-2.16-1-7.67.46a8.39,8.39,0,0,0-4.2,2.31,3.2,3.2,0,0,0-.62,3.49,4.43,4.43,0,0,0,2.33,2.42,26.51,26.51,0,0,0,6.41,1.84l1.82.36a28.79,28.79,0,0,1,8.1,2.53,6.66,6.66,0,0,1,3.19,3.45,5.29,5.29,0,0,1,.24,3,7.31,7.31,0,0,1-2.45,4,18.87,18.87,0,0,1-7.51,3.64" transform="translate(-92.74 -147.34)"/><path class="cls-4" d="M312.42,176.24a5,5,0,0,1,2.58,3.18c.1,0,.2-.22-.14-1a8.07,8.07,0,0,1-.93-3.15.14.14,0,0,0-.11-.15,8.18,8.18,0,0,1-1.4,1.17" transform="translate(-92.74 -147.34)"/><path class="cls-45" d="M303,201c-.16,0-.2.24-.1.64a27.17,27.17,0,0,0,1.28,3.84.82.82,0,0,0,.26.4c.22-.17.76-.53,1.37-.91a5.46,5.46,0,0,1-2.81-4" transform="translate(-92.74 -147.34)"/><path class="cls-46" d="M311.29,188.35l-1.82-.36c-6.24-1.23-7.91-2.26-8.73-4.24-1-2.55,1.09-4.79,4.81-5.79l.38-.09c4.68-1.2,6.74-.64,7.26-.37a3.1,3.1,0,0,1,1.33,1.35c.25.48.36.6.47.57h0a5,5,0,0,0-2.58-3.18,31.13,31.13,0,0,0-6.75,1,12,12,0,0,0-5.84,3.26c-2.37,2.74-.78,7,6.66,8.69.58.13,4.49.89,5.07,1,7.44,1.39,11.84,5.31,8.63,9.91-1.43,2-4.13,3.36-6.89,4.11a21.14,21.14,0,0,1-7.54.74c-.61.38-1.15.74-1.37.91a1,1,0,0,0,.56.16,26.35,26.35,0,0,0,7.9-1l.7-.19a18.29,18.29,0,0,0,6.84-3.45c3-2.71,2.79-5.59,2.2-7-1.14-2.79-3.61-4.46-11.3-6" transform="translate(-92.74 -147.34)"/><path class="cls-47" d="M299.83,180.49a12,12,0,0,1,5.84-3.26,31.8,31.8,0,0,1,6.75-1,8.18,8.18,0,0,0,1.4-1.17.43.43,0,0,0-.25,0,17.7,17.7,0,0,1-2.35.4,32.88,32.88,0,0,0-5.15,1l-.64.18c-6.4,1.89-9.41,5.47-7.94,9.09,1,2.37,3.23,4.09,10.18,5.6l3,.64c5.64,1.23,7.53,2.35,8.52,4.76.91,2.24-.47,5.28-5.64,6.66l-.49.13c-3.64.88-7.61.74-8.71-.41a5.11,5.11,0,0,1-1.1-1.8c-.11-.28-.15-.38-.26-.35a5.46,5.46,0,0,0,2.81,4,21.14,21.14,0,0,0,7.54-.74c2.76-.75,5.46-2.06,6.89-4.11,3.21-4.6-1.19-8.52-8.63-9.91-.58-.11-4.49-.87-5.07-1-7.44-1.69-9-6-6.66-8.69" transform="translate(-92.74 -147.34)"/><path class="cls-3" d="M312.42,176.24c-.25,0-.71,0-1.3.08l.34.82a4.67,4.67,0,0,1,1.73.36,3.1,3.1,0,0,1,1.33,1.35c.25.47.36.6.47.57h0a5,5,0,0,0-2.57-3.18" transform="translate(-92.74 -147.34)"/><path class="cls-48" d="M305.67,177.23l.26.63c4.68-1.2,6.74-.63,7.26-.36a3.1,3.1,0,0,1,1.33,1.35c.25.47.36.6.47.57h0a5,5,0,0,0-2.57-3.18,31.13,31.13,0,0,0-6.75,1" transform="translate(-92.74 -147.34)"/><path class="cls-49" d="M305.76,204.94a5.46,5.46,0,0,1-2.81-4c-.16,0-.2.24-.1.64a26.19,26.19,0,0,0,1.28,3.84.81.81,0,0,0,.25.4,1.14,1.14,0,0,0,.57.16,26.35,26.35,0,0,0,7.9-1l.7-.19-.25-.62a21.14,21.14,0,0,1-7.54.74" transform="translate(-92.74 -147.34)"/><path class="cls-50" d="M311.29,188.35l-1.82-.36c-1.72-.34-3.1-.67-4.2-1l-1.19,1.48a20.46,20.46,0,0,0,2.41.71c.58.13,4.49.89,5.07,1a21.31,21.31,0,0,1,5.14,1.58L318,190.2a37.17,37.17,0,0,0-6.67-1.85" transform="translate(-92.74 -147.34)"/><path class="cls-51" d="M313.82,175.07a.43.43,0,0,0-.25,0,17.7,17.7,0,0,1-2.35.4,32.88,32.88,0,0,0-5.15,1h0l.24.6a32.33,32.33,0,0,1,6.15-.84,5,5,0,0,1,2.58,3.18c.1,0,.2-.22-.14-1a8.07,8.07,0,0,1-.93-3.15.14.14,0,0,0-.11-.15" transform="translate(-92.74 -147.34)"/><path class="cls-52" d="M311.56,190.18c-.58-.11-4.49-.88-5.07-1a17.84,17.84,0,0,1-3.28-1l-1.09,1.6a33.62,33.62,0,0,0,5.55,1.62l3,.64a30.22,30.22,0,0,1,4.83,1.38l1.22-1.62a21.76,21.76,0,0,0-5.12-1.56" transform="translate(-92.74 -147.34)"/><path class="cls-53" d="M304.31,203.12a5.11,5.11,0,0,1-1.1-1.8c-.11-.28-.15-.38-.26-.35a5.46,5.46,0,0,0,2.81,4,20.25,20.25,0,0,0,6.88-.57l-.29-.69c-3.44.7-7,.52-8-.56" transform="translate(-92.74 -147.34)"/><path class="cls-3" d="M352.75,194.9a26.1,26.1,0,0,1-7.9.73c-.54-.07-.63-.19-.75-.57a22.64,22.64,0,0,1-.9-3.47c0-.16-.06-.31-.09-.44-.07-.37,0-.58.12-.62s.12.1.2.36a1,1,0,0,1,0,.1,4.86,4.86,0,0,0,.92,1.74c1.05,1.24,5.23,1.52,9.14.61,5.27-1.23,6.86-4.25,6.11-6.53a5.09,5.09,0,0,0-2.3-2.93,21.26,21.26,0,0,0-5.83-2.16l-2.89-.75a23.72,23.72,0,0,1-7.09-2.73,5.92,5.92,0,0,1-2.59-3.22,5,5,0,0,1,1.53-5.32A16,16,0,0,1,348.1,166a33.84,33.84,0,0,1,5.18-.82,17.26,17.26,0,0,0,2.37-.32.32.32,0,0,1,.24,0,.13.13,0,0,1,.07.13,8.06,8.06,0,0,0,.7,3.21c.29.91.13,1,.07,1s-.23-.21-.39-.58l0-.07a2.79,2.79,0,0,0-1.19-1.34c-.2-.12-2.07-1.1-7.65.2a8.72,8.72,0,0,0-4.34,2.19,3.32,3.32,0,0,0-.87,3.48,4.18,4.18,0,0,0,2.15,2.51,25,25,0,0,0,6.23,2.07l1.78.42a27.71,27.71,0,0,1,7.85,2.81,6.34,6.34,0,0,1,2.91,3.59,5.31,5.31,0,0,1,0,3.05,7.79,7.79,0,0,1-2.72,3.91,19.39,19.39,0,0,1-7.73,3.41" transform="translate(-92.74 -147.34)"/><path class="cls-4" d="M354.41,166a4.81,4.81,0,0,1,2.33,3.28c.11,0,.22-.21-.06-1A8.22,8.22,0,0,1,356,165a.12.12,0,0,0-.09-.15,9.14,9.14,0,0,1-1.48,1.13" transform="translate(-92.74 -147.34)"/><path class="cls-54" d="M343.22,190.51c-.16,0-.21.24-.14.65a26.77,26.77,0,0,0,1,3.9.77.77,0,0,0,.23.41c.24-.17.79-.51,1.43-.87a5.26,5.26,0,0,1-2.51-4.09" transform="translate(-92.74 -147.34)"/><path class="cls-55" d="M352.42,178.12l-1.78-.43c-6.11-1.45-7.69-2.53-8.36-4.56-.85-2.6,1.43-4.77,5.19-5.65l.38-.09c4.74-1,6.74-.41,7.24-.11a2.82,2.82,0,0,1,1.22,1.4c.22.48.32.61.43.58h0a4.81,4.81,0,0,0-2.33-3.28,31.19,31.19,0,0,0-6.77.77,12.3,12.3,0,0,0-6,3.08c-2.55,2.67-1.28,7,6,8.95.56.15,4.39,1.05,5,1.18,7.29,1.64,11.37,5.73,7.85,10.25-1.57,2-4.34,3.24-7.14,3.9a20.67,20.67,0,0,1-7.53.49c-.64.36-1.19.7-1.43.87a1,1,0,0,0,.55.18,26,26,0,0,0,7.91-.74l.71-.17a18.62,18.62,0,0,0,7-3.24c3.19-2.62,3.18-5.52,2.7-7-.93-2.84-3.27-4.6-10.78-6.4" transform="translate(-92.74 -147.34)"/><path class="cls-56" d="M341.61,169.83a12.3,12.3,0,0,1,6-3.08,31.19,31.19,0,0,1,6.77-.77,9.14,9.14,0,0,0,1.48-1.13.42.42,0,0,0-.25,0,17.1,17.1,0,0,1-2.36.32,31.79,31.79,0,0,0-5.18.83l-.65.16c-6.49,1.68-9.74,5.18-8.54,8.86.79,2.42,2.91,4.22,9.7,6l2.88.75c5.52,1.43,7.32,2.62,8.12,5.07.74,2.28-.85,5.29-6.08,6.51l-.49.11c-3.68.75-7.61.49-8.62-.71a4.87,4.87,0,0,1-1-1.84c-.09-.28-.13-.39-.24-.37a5.26,5.26,0,0,0,2.51,4.09,20.67,20.67,0,0,0,7.53-.49c2.8-.66,5.57-1.88,7.14-3.9,3.52-4.52-.56-8.61-7.85-10.25-.57-.13-4.4-1-5-1.18-7.26-1.94-8.53-6.28-6-8.95" transform="translate(-92.74 -147.34)"/><path class="cls-3" d="M354.41,166l-1.29,0,.28.84a4.45,4.45,0,0,1,1.69.42,3,3,0,0,1,1.22,1.4c.22.49.32.62.43.59h0a4.78,4.78,0,0,0-2.33-3.28" transform="translate(-92.74 -147.34)"/><path class="cls-57" d="M347.64,166.75l.21.64c4.74-1,6.74-.41,7.24-.12a3,3,0,0,1,1.22,1.4c.22.49.32.62.43.59h0a4.78,4.78,0,0,0-2.33-3.28,30.54,30.54,0,0,0-6.77.77" transform="translate(-92.74 -147.34)"/><path class="cls-58" d="M345.73,194.6a5.27,5.27,0,0,1-2.51-4.09c-.16,0-.21.24-.14.65a25.68,25.68,0,0,0,1,3.9.88.88,0,0,0,.22.41,1.05,1.05,0,0,0,.56.17,26,26,0,0,0,7.91-.73l.71-.17-.21-.63a20.67,20.67,0,0,1-7.53.49" transform="translate(-92.74 -147.34)"/><path class="cls-59" d="M352.42,178.12l-1.78-.43a40.36,40.36,0,0,1-4.1-1.15L345.25,178a18.81,18.81,0,0,0,2.34.79c.56.15,4.39,1.05,5,1.18a20.49,20.49,0,0,1,5,1.76l1.36-1.53a36,36,0,0,0-6.48-2.07" transform="translate(-92.74 -147.34)"/><path class="cls-60" d="M355.89,164.85a.42.42,0,0,0-.25,0,17.1,17.1,0,0,1-2.36.32,31.79,31.79,0,0,0-5.18.83h-.05l.2.6a32.46,32.46,0,0,1,6.16-.63,4.81,4.81,0,0,1,2.33,3.28c.11,0,.22-.21-.06-1A8.22,8.22,0,0,1,356,165a.12.12,0,0,0-.09-.15" transform="translate(-92.74 -147.34)"/><path class="cls-61" d="M352.55,180c-.57-.13-4.4-1-5-1.18a17.48,17.48,0,0,1-3.17-1.17l-1.2,1.57a31.6,31.6,0,0,0,5.39,1.81l2.88.75a27.94,27.94,0,0,1,4.7,1.55l1.32-1.58a20.25,20.25,0,0,0-5-1.75" transform="translate(-92.74 -147.34)"/><path class="cls-62" d="M344.42,192.72a4.87,4.87,0,0,1-1-1.84c-.09-.29-.13-.39-.24-.37a5.26,5.26,0,0,0,2.51,4.09,20,20,0,0,0,6.86-.34l-.23-.71c-3.47.6-7,.29-7.94-.83" transform="translate(-92.74 -147.34)"/></svg>