<svg xmlns="http://www.w3.org/2000/svg" width="20.25" height="36" viewBox="0 0 20.25 36">
  <path id="Icon_awesome-wine-glass-alt" data-name="Icon awesome-wine-glass-alt" d="M15.188,32.625H12.375v-8.24a10.171,10.171,0,0,0,7.833-10.839L19.086,1.023A1.115,1.115,0,0,0,17.982,0H2.268a1.115,1.115,0,0,0-1.1,1.023L.042,13.546A10.171,10.171,0,0,0,7.875,24.386v8.239H5.063A2.813,2.813,0,0,0,2.25,35.438.562.562,0,0,0,2.813,36H17.438A.562.562,0,0,0,18,35.438,2.813,2.813,0,0,0,15.188,32.625ZM4.342,3.375H15.908L16.412,9H3.838Z"/>
</svg>
