<svg xmlns="http://www.w3.org/2000/svg" width="30.24" height="34.56" viewBox="0 0 30.24 34.56">
  <path id="Icon_map-local-government" data-name="Icon map-local-government" d="M33.12,20.88v14.4H22.32V32.4H12.96v2.88H2.88V20.88ZM26.6,18.256a8.259,8.259,0,0,0-2.815-4.609c-1.423-1.183-3.108-1.407-5.061-2.127H18.72V6.964l.377-.1.826-.306a7.936,7.936,0,0,1,.9-.261,2.962,2.962,0,0,1,.637-.1,4.932,4.932,0,0,1,1.017.131c.409.1.845.207,1.287.328.462.14.873.246,1.273.336a4.367,4.367,0,0,0,.964.123,6.966,6.966,0,0,0,1.354-.186V1.714A4.932,4.932,0,0,1,26,1.98a4.037,4.037,0,0,1-.973-.137c-.4-.076-.809-.2-1.27-.329q-.617-.185-1.248-.321a3.835,3.835,0,0,0-.922-.138,6.738,6.738,0,0,0-2.873.616V.72H17.28v10.8h-.045c-1.938.72-3.635.985-5.057,2.168A8.339,8.339,0,0,0,9.357,18.2a1.171,1.171,0,0,0-1.38,1.244H28.115c0-1.44-1.512-1.184-1.512-1.184Z" transform="translate(-2.88 -0.72)"/>
</svg>
