<svg xmlns="http://www.w3.org/2000/svg" viewBox="0 0 236.56 170.27"><defs><style>.cls-1{fill:#fff;}</style></defs><g id="Layer_2" data-name="Layer 2"><g id="Layer_1-2" data-name="Layer 1"><g id="Layer_2-2" data-name="Layer 2"><g id="Layer_1-2-2" data-name="Layer 1-2"><path class="cls-1" d="M130.38,165.2,236.56,75.48h-24c-29,7.11-74.08,74.86-83.53,89.58h-1.24a8.53,8.53,0,0,0-1.33.07c-9.6-15-54.45-82.61-83.45-89.8H19l106.08,90c-2.15.42-3.64,1.34-3.64,2.4,0,1.45,2.86,2.61,6.33,2.59s6.31-1.22,6.31-2.66C134.16,166.5,132.6,165.59,130.38,165.2Zm-2.64,2.23-.46.4.32-.51.18-.28.15.23Z"/><polygon class="cls-1" points="127.93 167.27 127.74 167.44 127.6 167.32 127.78 167.04 127.93 167.27"/><polygon class="cls-1" points="127.93 167.27 127.74 167.44 127.28 167.83 127.6 167.32 127.78 167.04 127.93 167.27"/><polygon class="cls-1" points="127.93 167.27 127.74 167.44 127.28 167.83 127.6 167.32 127.78 167.04 127.93 167.27"/><rect class="cls-1" x="88.67" y="51.13" width="56.86" height="5.28" transform="translate(-2.94 100.61) rotate(-45.98)"/><path class="cls-1" d="M127,0,74.85,55.41l13.37,13.4,41.5-44.06,40.39,40.5L180.8,53.91ZM85.94,62.42l-3.79-3.67,39.51-40.89,3.8,3.66Z"/><rect class="cls-1" x="113.68" y="93.9" width="36.13" height="3.35" transform="translate(-27.66 128.47) rotate(-47.62)"/><path class="cls-1" d="M126.4,129.91l32.14-36.14-8.73-8.27-25.56,28.74-26.39-25-6.58,7.39Zm25-40.39,2.48,2.26-24.35,26.69L127,116.21Z"/><path class="cls-1" d="M132.31,85.74l-.66-.59.11-.13-11.35-10.1.08-.09L115,68.76l6.52,4.91.08-.09L133,83.68l.11-.13.66.59ZM121.47,74.47l-.34.39,11,9.83.35-.4Z"/><rect class="cls-1" x="134.01" y="84.97" width="2.14" height="3.61" transform="translate(-19.54 130.01) rotate(-48.34)"/><path class="cls-1" d="M13.42,45.68l1.36-1a9.31,9.31,0,0,0,1.06.14,2.25,2.25,0,0,0,1.31-1.24,7.12,7.12,0,0,0,.38-2.67V39.66a4.66,4.66,0,0,1,1.66-3.8,4.5,4.5,0,0,1,2.9-1.13,3.45,3.45,0,0,1,1.35.3l-1.2,1.18a2.62,2.62,0,0,0-1.45-.48c-1.21,0-1.81,1-1.81,3v1.12a9.52,9.52,0,0,1-.44,3.35A3.59,3.59,0,0,1,16.86,45l1.68.14.75.06H21A4.14,4.14,0,0,0,24.12,44a.56.56,0,0,1,.13.24c0,.17-.26.48-.78.91a4.46,4.46,0,0,1-2.85,1.1,12.58,12.58,0,0,1-1.53-.07L16.68,46C15.43,45.89,14.34,45.79,13.42,45.68Z"/><path class="cls-1" d="M39.48,44.94a5.83,5.83,0,0,1-3.58,1.29,2.93,2.93,0,0,1-2.09-.76,2.63,2.63,0,0,1-.8-2q0-2.36,3.35-3.91a6,6,0,0,1-.52-2.11,2.69,2.69,0,0,1,.82-2,2.87,2.87,0,0,1,2.08-.79c1.21,0,1.81.53,1.81,1.6s-1,2-2.91,3.09l.11.24L38,40c.18.37.32.64.41.81a5,5,0,0,1,3.78-1.29h1.7a4.18,4.18,0,0,0,2-.35A1.27,1.27,0,0,0,46.51,38,1.41,1.41,0,0,0,46,37l.9-.91a1.86,1.86,0,0,1,.34,1.16A2.87,2.87,0,0,1,46,39.77a6,6,0,0,1-3.5.91h-.14a6.92,6.92,0,0,1-2,3.43c.55.76,1,1.14,1.52,1.14s.76-.28,1.16-.84a.37.37,0,0,1,.13.27c0,.28-.23.61-.69,1a2,2,0,0,1-1.21.57C40.77,46.24,40.17,45.8,39.48,44.94Zm-.22-.28-.19-.26a24.27,24.27,0,0,1-2.37-4.22l-.14-.3A3.28,3.28,0,0,0,34.45,43a2.42,2.42,0,0,0,.74,1.83,2.59,2.59,0,0,0,1.87.72A3.59,3.59,0,0,0,39.26,44.66Zm-1.74-5.58c1.27-.74,1.9-1.59,1.9-2.55a1.37,1.37,0,0,0-.39-1,1.23,1.23,0,0,0-.92-.41c-.82,0-1.23.52-1.23,1.54A6.79,6.79,0,0,0,37.52,39.08Zm2.62,4.74a6.39,6.39,0,0,0,1.21-3.14h-.23a5.75,5.75,0,0,0-2.59.45c.1.18.16.29.17.32l.55.95C39.66,43.09,40,43.57,40.14,43.82Z"/><path class="cls-1" d="M55.38,44.47l1.38-.84a2.16,2.16,0,0,0,2.3,2h.09a2.48,2.48,0,0,0,1.65-.55,1.76,1.76,0,0,0,.64-1.41A3.16,3.16,0,0,0,60,41.34l-1-.79A9.15,9.15,0,0,1,57.45,39a2.22,2.22,0,0,1-.4-1.27,2.72,2.72,0,0,1,1.07-2.19,4.06,4.06,0,0,1,2.68-.87,5.19,5.19,0,0,1,2.44.61l-.47,1.08-.21.48q-.18.42-.42.42a.35.35,0,0,1-.22-.08,2.28,2.28,0,0,0,.13-.68,1,1,0,0,0-.57-.87,2.69,2.69,0,0,0-1.41-.35c-1.28,0-1.91.53-1.91,1.59A1.74,1.74,0,0,0,58.58,38a15.87,15.87,0,0,0,1.77,1.61l.79.65a3.38,3.38,0,0,1,1.5,2.56,3,3,0,0,1-1.25,2.45,4.82,4.82,0,0,1-3.1,1A2.74,2.74,0,0,1,55.38,44.47Z"/><path class="cls-1" d="M11.46,59.64A8.5,8.5,0,0,1,10,64.7,5.21,5.21,0,0,1,5.49,67a5.46,5.46,0,0,1-1.75-.31,4.86,4.86,0,0,1-3-2.3A8,8,0,0,1,0,60.65a9.93,9.93,0,0,1,1.47-5.41,5.21,5.21,0,0,1,4.61-2.76,4.59,4.59,0,0,1,4.06,2.38A8.66,8.66,0,0,1,11.46,59.64Zm-2-.19q0-4.32-2.78-5.17A2.51,2.51,0,0,0,6,54.2a3.53,3.53,0,0,0-2.33,1q-1.84,1.68-1.84,6A4.83,4.83,0,0,0,2,62.33a4.67,4.67,0,0,0,1.06,2.31,3.18,3.18,0,0,0,2.37.83,3.42,3.42,0,0,0,3.19-2.06,8.59,8.59,0,0,0,.84-4Z"/><path class="cls-1" d="M18.39,59.51a3.53,3.53,0,0,1,0,.46,1.17,1.17,0,0,1-.91.62.86.86,0,0,1-.71-.46q0-.93-.66-.93c-.25,0-.56.66-.91,2A9,9,0,0,0,15,63.63,6.42,6.42,0,0,0,15,65.38a2,2,0,0,1,.16.54.67.67,0,0,1-.32.57,1.22,1.22,0,0,1-.71.22c-.74,0-1.11-.35-1.11-1a1.41,1.41,0,0,1,0-.29.86.86,0,0,0,.05-.27c0-.7,0-1.75-.1-3.14s-.1-2.43-.1-3.12S13.25,58,14,58a1,1,0,0,1,.91.4,1.72,1.72,0,0,1,1.31-.65,2,2,0,0,1,1,.27,2.63,2.63,0,0,1,.73.72A1.69,1.69,0,0,1,18.39,59.51Z"/><path class="cls-1" d="M21.92,58.66a5.45,5.45,0,0,1-.17,1.06,4.77,4.77,0,0,0-.16,1.06v4.27a4.78,4.78,0,0,0,.25,1.25.88.88,0,0,1-.7.47,1.28,1.28,0,0,1-1.43-1.11,1.21,1.21,0,0,1,0-.19q-.21-2.43-.21-3.66a30.36,30.36,0,0,1,.17-3.44v-.21c0-.25.19-.37.57-.37a2.67,2.67,0,0,1,1,.21Q21.92,58.22,21.92,58.66Zm.18-2.9a1,1,0,0,1-.31.74,1,1,0,0,1-.76.29,1.53,1.53,0,0,1-1-.37,1.13,1.13,0,0,1-.47-.91,1,1,0,0,1,.32-.75,1.18,1.18,0,0,1,.8-.29,1.52,1.52,0,0,1,1,.36A1.15,1.15,0,0,1,22.1,55.76Z"/><path class="cls-1" d="M29.91,60.49a15.21,15.21,0,0,1-.27,1.82,11.27,11.27,0,0,0-.21,1.83c0,.41,0,1,.06,1.87s.06,1.45.06,1.86a5.38,5.38,0,0,1-.25,1.91,2.47,2.47,0,0,1-1.1,1.28,3.24,3.24,0,0,1-1.68.48,6.73,6.73,0,0,1-2.26-.49q-1.62-.58-1.62-1.29c0-.61.29-.91.86-.91a.55.55,0,0,1,.53.23,3,3,0,0,0,.37.49,2,2,0,0,0,.67.2,4.5,4.5,0,0,0,.81.11c1.25,0,1.87-.78,1.87-2.34a11.27,11.27,0,0,0-.06-1.16,3.24,3.24,0,0,1-2.14.77,2.92,2.92,0,0,1-1.16-.29,2.76,2.76,0,0,1-1-.69A3.37,3.37,0,0,1,22.77,64a11,11,0,0,1,.81-3.88c.66-1.73,1.47-2.59,2.42-2.59a2.29,2.29,0,0,1,1.66.81l1.17,1.51a1.52,1.52,0,0,0,.52.38A2.85,2.85,0,0,1,29.91,60.49Zm-2.1,1.24a.61.61,0,0,0-.29-.52c-.08-1.27-.53-1.91-1.33-1.91-.46,0-.83.65-1.14,1.93a12.3,12.3,0,0,0-.33,2.56c0,1.35.35,2,1.06,2s1.19-.54,1.57-1.62A7,7,0,0,0,27.81,61.73Z"/><path class="cls-1" d="M33.91,58.66a5.45,5.45,0,0,1-.17,1.06,4.77,4.77,0,0,0-.16,1.06v4.27a4.78,4.78,0,0,0,.25,1.25.9.9,0,0,1-.69.47,1.29,1.29,0,0,1-1.44-1.12,1.09,1.09,0,0,1,0-.18q-.21-2.43-.21-3.66a30.36,30.36,0,0,1,.17-3.44v-.21c0-.25.19-.37.57-.37a2.67,2.67,0,0,1,1,.21Q33.91,58.22,33.91,58.66Zm.19-2.9a1,1,0,0,1-1.08,1,1.53,1.53,0,0,1-1-.37,1.13,1.13,0,0,1-.47-.91.94.94,0,0,1,.33-.75,1.18,1.18,0,0,1,.8-.29,1.47,1.47,0,0,1,1,.36A1.18,1.18,0,0,1,34.1,55.76Z"/><path class="cls-1" d="M42.48,66.5a.92.92,0,0,1-.77.48,3.22,3.22,0,0,1-1.16-.41V63.66q0-4.44-1.32-4.44c-.25,0-.53.2-.85.58A6.61,6.61,0,0,0,37,64.1a5.59,5.59,0,0,0,.13,1,6.69,6.69,0,0,1,.14,1,.55.55,0,0,1-.27.48,1,1,0,0,1-.58.19c-.83,0-1.25-.53-1.25-1.58V60.46a4.07,4.07,0,0,0,0-.49,6,6,0,0,0-.08-.73,5.53,5.53,0,0,1-.07-.7.84.84,0,0,1,.38-.64,1.2,1.2,0,0,1,.7-.3,1.37,1.37,0,0,1,.93.52L37,59a2.21,2.21,0,0,1,1.89-1.22,2.87,2.87,0,0,1,1.53.5,3.45,3.45,0,0,1,1.19,1.12,8.71,8.71,0,0,1,.85,4.14Z"/><path class="cls-1" d="M51.36,63.12a28.06,28.06,0,0,1-.17,3.78c-.07.43-.36.64-.87.64-.78,0-1.12-.39-1-1.16a4.89,4.89,0,0,1-2.16.5,4.13,4.13,0,0,1-2-.54,1.91,1.91,0,0,1-1.25-1.64c0-.65.44-1.26,1.33-1.83a4.26,4.26,0,0,1,2.26-.77h1.76v-.49c0-1.44-.41-2.16-1.29-2.16-1.09,0-1.63.51-1.63,1.52,0,.34-.2.51-.59.51a1.13,1.13,0,0,1-.73-.32.87.87,0,0,1-.39-.67,2.44,2.44,0,0,1,.83-1.91,2.9,2.9,0,0,1,2-.75Q51.36,57.83,51.36,63.12Zm-2.1.75c0-.28-.21-.42-.62-.42-1.73,0-2.6.41-2.6,1.23,0,.44.39.66,1.15.66A2.37,2.37,0,0,0,48.51,65,1.26,1.26,0,0,0,49.26,63.87Z"/><path class="cls-1" d="M55.36,66.09a.81.81,0,0,1-.3.63,1,1,0,0,1-.7.26c-.87,0-1.3-1.14-1.3-3.42V54.22q0-.36-.06-.72c0-.24,0-.47-.06-.71A2.14,2.14,0,0,1,54,52.33a1.46,1.46,0,0,1,.88.3.92.92,0,0,1,.41.76,1.66,1.66,0,0,1-.1.54c-.1.33-.16.51-.17.54a18.64,18.64,0,0,0-.27,3.65V62a12.86,12.86,0,0,0,.44,3.65A1.46,1.46,0,0,1,55.36,66.09Z"/><path class="cls-1" d="M58.82,58.66a4.77,4.77,0,0,1-.16,1.06,5.45,5.45,0,0,0-.17,1.06v4.27a5.33,5.33,0,0,0,.25,1.25.9.9,0,0,1-.69.47,1.3,1.3,0,0,1-1.44-1.14.86.86,0,0,1,0-.16c-.13-1.62-.2-2.84-.2-3.66a30.36,30.36,0,0,1,.16-3.44v-.21c0-.25.19-.37.58-.37a2.89,2.89,0,0,1,1,.21C58.6,58.15,58.82,58.37,58.82,58.66Zm.19-2.9a1,1,0,0,1-.31.74,1.06,1.06,0,0,1-.77.29,1.53,1.53,0,0,1-1-.37,1.13,1.13,0,0,1-.47-.91,1,1,0,0,1,.32-.75,1.18,1.18,0,0,1,.8-.29,1.59,1.59,0,0,1,1,.36A1.16,1.16,0,0,1,59,55.76Z"/><path class="cls-1" d="M64.2,59.22c0,.37-.57.64-1.7.79v3.44a8.54,8.54,0,0,0,.12,1.23,8.13,8.13,0,0,1,.12,1.2.74.74,0,0,1-.33.59,1.09,1.09,0,0,1-.66.26c-.35,0-.64-.3-.87-.89a3.76,3.76,0,0,1-.27-1.33v-4.4c-.64-.09-1-.16-1.1-.18q-.54-.16-.54-.48a.61.61,0,0,1,0-.19,1.53,1.53,0,0,1,1.2-.77h.25c.29,0,.43-.33.42-1V56a1,1,0,0,1-.11-.39A.61.61,0,0,1,61,55.1a1.12,1.12,0,0,1,.61-.21,1.14,1.14,0,0,1,.82.4,1.21,1.21,0,0,1,.39.86,3.08,3.08,0,0,1-.16,1,3.06,3.06,0,0,0-.13,1v.09C63.65,58.35,64.2,58.67,64.2,59.22Z"/><path class="cls-1" d="M72.08,58.68c-.12.69-.24,1.38-.35,2.06a11.22,11.22,0,0,0-.21,2v5.64a3,3,0,0,1-.88,2.35,3.44,3.44,0,0,1-2.42.81A5.77,5.77,0,0,1,66,71c-1-.4-1.43-.89-1.43-1.45a.63.63,0,0,1,.24-.49.79.79,0,0,1,.53-.2,2.53,2.53,0,0,1,.89.56,2.51,2.51,0,0,0,1.62.56,1.54,1.54,0,0,0,1.55-.85,4.26,4.26,0,0,0,.3-1.87v-.79a2.63,2.63,0,0,1-1.54.46,2.84,2.84,0,0,1-2.41-1.12A4.18,4.18,0,0,1,65,63.29c0-.11.06-1.86.2-5.23a1.84,1.84,0,0,1,2.22.23,16.2,16.2,0,0,0-.49,5c0,1.59.4,2.38,1.2,2.38.59,0,1-.5,1.37-1.49a7.38,7.38,0,0,0,.35-2.24V59.39l-.06-.69A3.4,3.4,0,0,1,71,58.29,2,2,0,0,1,72.08,58.68Z"/></g></g></g></g></svg>