<?xml version="1.0" encoding="utf-8"?>
<!-- Generator: Adobe Illustrator 24.2.1, SVG Export Plug-In . SVG Version: 6.00 Build 0)  -->
<svg version="1.1" id="Layer_1" xmlns="http://www.w3.org/2000/svg" xmlns:xlink="http://www.w3.org/1999/xlink" x="0px" y="0px"
	 viewBox="0 0 236.6 170.2" style="enable-background:new 0 0 236.6 170.2;" xml:space="preserve">
<g id="Layer_2_1_">
	<g id="Layer_1-2">
		<path d="M130.4,165.2l106.2-89.7h-24c-29,7.1-74.1,74.9-83.5,89.6c-0.4,0-0.8,0-1.2,0s-0.9,0-1.3,0.1c-9.6-15-54.5-82.6-83.5-89.8
			H19l106.1,89.9c-2.2,0.4-3.6,1.3-3.6,2.4c0,1.4,2.9,2.6,6.3,2.6c3.4,0,6.3-1.2,6.3-2.7C134.1,166.5,132.6,165.6,130.4,165.2z
			 M127.7,167.4l-0.5,0.4l0.3-0.5l0.2-0.3l0.2,0.2L127.7,167.4z"/>
		<polygon points="127.9,167.3 127.7,167.4 127.6,167.3 127.8,167 		"/>
		<polygon points="127.9,167.3 127.7,167.4 127.3,167.8 127.6,167.3 127.8,167 		"/>
		<polygon points="127.9,167.3 127.7,167.4 127.3,167.8 127.6,167.3 127.8,167 		"/>
		<rect x="88.7" y="51.1" transform="matrix(0.6949 -0.7191 0.7191 0.6949 -2.8925 100.6029)" width="56.9" height="5.3"/>
		<path d="M127,0L74.8,55.4l13.4,13.4l41.5-44.1l40.4,40.5l10.7-11.3L127,0z M85.9,62.4l-3.8-3.7l39.5-40.9l3.8,3.7L85.9,62.4z"/>
		<rect x="113.7" y="93.9" transform="matrix(0.674 -0.7387 0.7387 0.674 -27.6389 128.452)" width="36.1" height="3.3"/>
		<path d="M126.4,129.9l32.1-36.1l-8.7-8.3l-25.6,28.7l-26.4-25l-6.6,7.4L126.4,129.9z M151.4,89.5l2.5,2.3l-24.4,26.7l-2.5-2.3
			L151.4,89.5z"/>
		<path d="M132.3,85.7l-0.7-0.6l0.1-0.1l-11.3-10.1l0.1-0.1l-5.5-6.1l6.5,4.9l0.1-0.1L133,83.7l0.1-0.1l0.7,0.6L132.3,85.7z
			 M121.5,74.5l-0.3,0.4l11,9.8l0.4-0.4L121.5,74.5z"/>
		<rect x="134" y="85" transform="matrix(0.6647 -0.7471 0.7471 0.6647 -19.5615 130.0211)" width="2.1" height="3.6"/>
		<path d="M13.4,45.7l1.4-1c0.4,0.1,0.7,0.1,1.1,0.1c0.6-0.2,1.1-0.7,1.3-1.2c0.3-0.9,0.4-1.8,0.4-2.7v-1.2
			c-0.1-1.5,0.5-2.9,1.7-3.8c0.8-0.7,1.8-1.1,2.9-1.1c0.5,0,0.9,0.1,1.4,0.3l-1.2,1.2c-0.4-0.3-0.9-0.5-1.5-0.5c-1.2,0-1.8,1-1.8,3
			v1.1c0.1,1.1-0.1,2.3-0.4,3.3C18.4,44,17.8,44.6,17,45l1.7,0.1l0.8,0.1h0.9c0.2,0,0.5,0,0.8,0c1.2,0.1,2.3-0.4,3.1-1.2
			c0.1,0.1,0.1,0.2,0.1,0.2c0,0.2-0.3,0.5-0.8,0.9c-0.8,0.7-1.8,1.1-2.9,1.1c-0.4,0-0.9,0-1.5-0.1L16.7,46
			C15.4,45.9,14.3,45.8,13.4,45.7z"/>
		<path d="M39.5,44.9c-1,0.8-2.3,1.3-3.6,1.3c-0.8,0-1.5-0.2-2.1-0.8c-0.5-0.5-0.8-1.2-0.8-2c0-1.6,1.1-2.9,3.3-3.9
			c-0.3-0.7-0.5-1.4-0.5-2.1c0-0.8,0.3-1.5,0.8-2c0.6-0.5,1.3-0.8,2.1-0.8c1.2,0,1.8,0.5,1.8,1.6s-1,2-2.9,3.1l0.1,0.2L38,40
			c0.2,0.4,0.3,0.6,0.4,0.8c1-0.9,2.4-1.4,3.8-1.3h1.7c0.7,0,1.4-0.1,2-0.3c0.4-0.2,0.7-0.7,0.7-1.2c0-0.4-0.2-0.7-0.5-1l0.9-0.9
			c0.2,0.3,0.4,0.7,0.3,1.2c0,1-0.4,2-1.3,2.5c-1,0.7-2.3,1-3.5,0.9h-0.1c-0.3,1.3-1,2.5-2,3.4c0.5,0.8,1,1.1,1.5,1.1
			s0.8-0.3,1.2-0.8c0.1,0.1,0.1,0.2,0.1,0.3c0,0.3-0.2,0.6-0.7,1c-0.3,0.3-0.8,0.5-1.2,0.6C40.8,46.2,40.2,45.8,39.5,44.9z
			 M39.2,44.7L39,44.4c-0.9-1.3-1.7-2.7-2.4-4.2l-0.1-0.3c-1.3,0.5-2.1,1.7-2.1,3.1c0,0.7,0.2,1.4,0.7,1.8c0.5,0.5,1.2,0.7,1.9,0.7
			C37.9,45.5,38.6,45.2,39.2,44.7z M37.5,39.1c1.3-0.7,1.9-1.6,1.9-2.5c0-0.4-0.1-0.7-0.4-1c-0.2-0.3-0.6-0.4-0.9-0.4
			c-0.8,0-1.2,0.5-1.2,1.5C36.9,37.5,37.1,38.3,37.5,39.1z M40.1,43.8c0.7-0.9,1.1-2,1.2-3.1h-0.2c-0.9-0.1-1.8,0.1-2.6,0.5
			c0.1,0.2,0.2,0.3,0.2,0.3l0.5,1C39.7,43.1,39.9,43.6,40.1,43.8z"/>
		<path d="M55.4,44.5l1.4-0.8c0.1,1.2,1.1,2.1,2.3,2h0.1c0.6,0,1.2-0.2,1.7-0.5c0.4-0.3,0.7-0.9,0.6-1.4c-0.1-1-0.6-1.8-1.4-2.3
			l-1-0.8c-0.6-0.5-1.1-1-1.6-1.5c-0.3-0.4-0.4-0.8-0.4-1.3c0-0.9,0.4-1.7,1.1-2.2c0.8-0.6,1.7-0.9,2.7-0.9c0.9,0,1.7,0.2,2.4,0.6
			l-0.5,1.1L62.6,37c-0.1,0.3-0.3,0.4-0.4,0.4c-0.1,0-0.2,0-0.2-0.1c0-0.3,0-0.6,0-0.8c0-0.4-0.2-0.7-0.6-0.9
			c-0.4-0.2-0.9-0.4-1.4-0.3c-1.3,0-1.9,0.5-1.9,1.6c0,0.4,0.1,0.8,0.4,1.1c0.5,0.6,1.1,1.1,1.8,1.6l0.8,0.7
			c0.9,0.6,1.4,1.5,1.5,2.6c0,1-0.5,1.9-1.2,2.5c-0.9,0.7-2,1-3.1,1C57,46.4,55.8,45.7,55.4,44.5z"/>
		<path d="M11.4,59.6c0.1,1.8-0.4,3.6-1.4,5.1S7.3,67.1,5.5,67c-0.6,0-1.2-0.1-1.8-0.3c-1.3-0.3-2.4-1.2-3-2.3
			c-0.5-1.2-0.8-2.5-0.7-3.7c0-1.9,0.5-3.8,1.5-5.4c0.9-1.7,2.7-2.8,4.6-2.8c1.7,0,3.2,0.9,4.1,2.4C11,56.3,11.5,58,11.4,59.6z
			 M9.4,59.5c0-2.9-0.9-4.6-2.8-5.2c-0.2-0.1-0.4-0.1-0.7-0.1c-0.9,0-1.7,0.4-2.3,1c-1.2,1.1-1.8,3.1-1.8,6c0,0.4,0.1,0.8,0.2,1.1
			c0.1,0.9,0.5,1.7,1.1,2.3s1.5,0.9,2.4,0.8c1.4,0,2.6-0.8,3.2-2.1C9.2,62.2,9.5,60.8,9.4,59.5L9.4,59.5z"/>
		<path d="M18.4,59.5c0,0.2,0,0.3,0,0.5c-0.2,0.3-0.5,0.6-0.9,0.6c-0.3,0-0.6-0.2-0.7-0.5c0-0.6-0.2-0.9-0.7-0.9
			c-0.2,0-0.6,0.7-0.9,2C15,62,14.9,62.8,15,63.6c-0.1,0.6,0,1.2,0.1,1.8c0.1,0.2,0.1,0.4,0.2,0.5c0,0.2-0.1,0.4-0.3,0.6
			c-0.2,0.1-0.5,0.2-0.7,0.2c-0.7,0-1.1-0.3-1.1-1c0-0.1,0-0.2,0-0.3c0-0.1,0-0.2,0.1-0.3c0-0.7,0-1.8-0.1-3.1s-0.1-2.4-0.1-3.1
			S13.2,58,14,58c0.4,0,0.7,0.1,0.9,0.4c0.3-0.4,0.8-0.6,1.3-0.7c0.3,0,0.7,0.1,1,0.3s0.5,0.4,0.7,0.7
			C18.1,58.9,18.3,59.2,18.4,59.5z"/>
		<path d="M21.9,58.7c0,0.4-0.1,0.7-0.2,1.1c-0.1,0.3-0.1,0.7-0.2,1.1v4.3c0,0.4,0.1,0.8,0.2,1.2c-0.1,0.3-0.4,0.4-0.7,0.5
			c-0.7,0.1-1.3-0.4-1.4-1.1c0-0.1,0-0.1,0-0.2c-0.1-1.6-0.2-2.8-0.2-3.7c0-1.1,0-2.3,0.2-3.4v-0.2c0-0.2,0.2-0.4,0.6-0.4
			c0.3,0,0.7,0.1,1,0.2C21.7,58.1,21.9,58.4,21.9,58.7z M22.1,55.8c0,0.3-0.1,0.5-0.3,0.7c-0.2,0.2-0.5,0.3-0.8,0.3
			c-0.4,0-0.7-0.1-1-0.4c-0.3-0.2-0.5-0.5-0.5-0.9c0-0.3,0.1-0.6,0.3-0.8c0.2-0.2,0.5-0.3,0.8-0.3c0.4,0,0.7,0.1,1,0.4
			C21.9,55.1,22.1,55.4,22.1,55.8z"/>
		<path d="M29.9,60.5c0,0.3-0.1,1-0.3,1.8c-0.1,0.6-0.2,1.2-0.2,1.8c0,0.4,0,1,0.1,1.9s0.1,1.4,0.1,1.9c0,0.6-0.1,1.3-0.2,1.9
			c-0.2,0.5-0.6,1-1.1,1.3s-1.1,0.5-1.7,0.5c-0.8,0-1.5-0.2-2.3-0.5c-1.1-0.4-1.6-0.8-1.6-1.3c0-0.6,0.3-0.9,0.9-0.9
			c0.2,0,0.4,0.1,0.5,0.2c0.1,0.2,0.2,0.3,0.4,0.5c0.2,0.1,0.4,0.2,0.7,0.2c0.3,0.1,0.5,0.1,0.8,0.1c1.2,0,1.9-0.8,1.9-2.3
			c0-0.4,0-0.8-0.1-1.2c-0.6,0.5-1.4,0.8-2.1,0.8c-0.4,0-0.8-0.1-1.2-0.3c-0.4-0.2-0.7-0.4-1-0.7c-0.5-0.6-0.7-1.4-0.6-2.2
			c0-1.3,0.3-2.6,0.8-3.9c0.7-1.7,1.5-2.6,2.4-2.6c0.6,0,1.2,0.3,1.7,0.8l1.2,1.5c0.1,0.2,0.3,0.3,0.5,0.4
			C29.5,60.3,29.7,60.4,29.9,60.5z M27.8,61.7c0-0.2-0.1-0.4-0.3-0.5c-0.1-1.3-0.5-1.9-1.3-1.9c-0.5,0-0.8,0.7-1.1,1.9
			c-0.2,0.8-0.3,1.7-0.3,2.6c0,1.4,0.4,2,1.1,2s1.2-0.5,1.6-1.6C27.6,63.4,27.8,62.6,27.8,61.7z"/>
		<path d="M33.9,58.7c0,0.4-0.1,0.7-0.2,1.1c-0.1,0.3-0.1,0.7-0.2,1.1v4.3c0,0.4,0.1,0.8,0.2,1.2c-0.1,0.3-0.4,0.4-0.7,0.5
			c-0.7,0.1-1.4-0.4-1.4-1.1c0-0.1,0-0.1,0-0.2c-0.1-1.6-0.2-2.8-0.2-3.7c0-1.1,0-2.3,0.2-3.4v-0.2c0-0.2,0.2-0.4,0.6-0.4
			c0.3,0,0.7,0.1,1,0.2C33.7,58.1,33.9,58.4,33.9,58.7z M34.1,55.8c0,0.3-0.1,0.5-0.3,0.7s-0.5,0.3-0.8,0.3c-0.4,0-0.7-0.1-1-0.4
			c-0.3-0.2-0.5-0.5-0.5-0.9c0-0.3,0.1-0.6,0.3-0.8c0.2-0.2,0.5-0.3,0.8-0.3c0.4,0,0.7,0.1,1,0.4C33.9,55.1,34.1,55.4,34.1,55.8z"/>
		<path d="M42.5,66.5C42.3,66.8,42,67,41.7,67c-0.4-0.1-0.8-0.2-1.2-0.4v-0.2c0-0.3,0-0.8,0-1.3s0-1,0-1.3c0-3-0.4-4.4-1.3-4.4
			c-0.2,0-0.5,0.2-0.8,0.6c-0.9,1.2-1.4,2.8-1.4,4.3c0,0.3,0.1,0.7,0.1,1c0.1,0.3,0.1,0.7,0.1,1c0,0.2-0.1,0.4-0.3,0.5
			S36.5,67,36.3,67c-0.8,0-1.2-0.5-1.2-1.6v-4.3c0-0.1,0-0.3,0-0.5s0-0.3,0-0.5s0-0.5-0.1-0.7c0-0.2-0.1-0.5-0.1-0.7
			c0-0.3,0.2-0.5,0.4-0.6c0.2-0.2,0.4-0.3,0.7-0.3c0.4,0,0.7,0.2,0.9,0.5L37,59c0.4-0.7,1.1-1.2,1.9-1.2c0.5,0,1.1,0.2,1.5,0.5
			c0.5,0.3,0.9,0.7,1.2,1.1c0.6,1.3,0.9,2.7,0.8,4.1L42.5,66.5z"/>
		<path d="M51.3,63.1c0,1.3,0,2.5-0.2,3.8c-0.1,0.4-0.4,0.6-0.9,0.6c-0.8,0-1.1-0.4-1-1.2c-0.7,0.3-1.4,0.5-2.2,0.5
			c-0.7,0-1.4-0.2-2-0.5c-0.7-0.3-1.2-0.9-1.2-1.6s0.4-1.3,1.3-1.8c0.7-0.5,1.4-0.7,2.3-0.8h1.8v-0.5c0-1.4-0.4-2.2-1.3-2.2
			c-1.1,0-1.6,0.5-1.6,1.5c0,0.3-0.2,0.5-0.6,0.5c-0.3,0-0.5-0.1-0.7-0.3s-0.4-0.4-0.4-0.7c0-0.7,0.3-1.4,0.8-1.9s1.3-0.8,2-0.8
			C50,57.8,51.3,59.6,51.3,63.1z M49.2,63.9c0-0.3-0.2-0.4-0.6-0.4c-1.7,0-2.6,0.4-2.6,1.2c0,0.4,0.4,0.7,1.2,0.7
			c0.5,0,0.9-0.1,1.3-0.3C48.9,64.8,49.2,64.4,49.2,63.9z"/>
		<path d="M55.3,66.1c0,0.2-0.1,0.5-0.3,0.6c-0.2,0.2-0.4,0.3-0.7,0.3c-0.9,0-1.3-1.1-1.3-3.4c0-1,0-2.6,0-4.7s0-3.6,0-4.7
			c0-0.2,0-0.5-0.1-0.7c0-0.2-0.1-0.5-0.1-0.7c0.3-0.2,0.7-0.4,1.1-0.5c0.3,0,0.6,0.1,0.9,0.3c0.3,0.2,0.4,0.5,0.4,0.8
			c0,0.2,0,0.4-0.1,0.5c-0.1,0.3-0.2,0.5-0.2,0.5c-0.2,1.2-0.3,2.4-0.3,3.7V62c0,1.2,0.1,2.5,0.4,3.7C55.3,65.8,55.3,65.9,55.3,66.1
			z"/>
		<path d="M58.8,58.7c0,0.4-0.1,0.7-0.2,1.1c-0.1,0.3-0.2,0.7-0.2,1.1v4.3c0,0.4,0.1,0.8,0.2,1.2c-0.1,0.3-0.4,0.4-0.7,0.5
			c-0.7,0.1-1.4-0.4-1.4-1.1c0-0.1,0-0.1,0-0.2c-0.1-1.6-0.2-2.8-0.2-3.7c0-1.1,0-2.3,0.2-3.4v-0.2c0-0.2,0.2-0.4,0.6-0.4
			c0.3,0,0.7,0.1,1,0.2C58.6,58.2,58.8,58.4,58.8,58.7z M59,55.8c0,0.3-0.1,0.5-0.3,0.7s-0.5,0.3-0.8,0.3c-0.4,0-0.7-0.1-1-0.4
			c-0.3-0.2-0.5-0.5-0.5-0.9c0-0.3,0.1-0.6,0.3-0.8s0.5-0.3,0.8-0.3c0.4,0,0.7,0.1,1,0.4C58.8,55.1,59,55.4,59,55.8z"/>
		<path d="M64.2,59.2c0,0.4-0.6,0.6-1.7,0.8c0,0.3,0,1,0,2.1v1.4c0,0.4,0.1,0.8,0.1,1.2c0.1,0.4,0.1,0.8,0.1,1.2
			c0,0.2-0.1,0.5-0.3,0.6c-0.2,0.2-0.4,0.2-0.7,0.3c-0.3,0-0.6-0.3-0.9-0.9c-0.2-0.4-0.3-0.9-0.3-1.3v-4.4c-0.6-0.1-1-0.2-1.1-0.2
			c-0.4-0.1-0.5-0.3-0.5-0.5c0-0.1,0-0.1,0-0.2c0.2-0.4,0.7-0.7,1.2-0.8h0.1h0.1c0.3,0,0.4-0.3,0.4-1V56c-0.1-0.1-0.1-0.3-0.1-0.4
			c0-0.2,0.1-0.4,0.3-0.5s0.4-0.2,0.6-0.2c0.3,0,0.6,0.2,0.8,0.4s0.4,0.5,0.4,0.9c0,0.3-0.1,0.7-0.2,1c-0.1,0.3-0.1,0.7-0.1,1v0.1
			C63.6,58.3,64.2,58.7,64.2,59.2z"/>
		<path d="M72.1,58.7c-0.1,0.7-0.2,1.4-0.3,2.1c-0.1,0.7-0.2,1.3-0.2,2v5.6c0.1,0.9-0.3,1.7-0.9,2.3c-0.7,0.6-1.5,0.9-2.4,0.8
			c-0.8,0-1.5-0.2-2.2-0.5c-1-0.4-1.4-0.9-1.4-1.4c0-0.2,0.1-0.4,0.2-0.5s0.3-0.2,0.5-0.2c0.3,0.1,0.6,0.3,0.9,0.6
			c0.5,0.4,1,0.6,1.6,0.6c0.6,0.1,1.3-0.3,1.6-0.8c0.2-0.6,0.3-1.2,0.3-1.9c0-0.3,0-0.6,0-0.8c-0.5,0.3-1,0.5-1.5,0.5
			c-0.9,0-1.8-0.4-2.4-1.1c-0.5-0.7-0.8-1.6-0.8-2.5c0-0.1,0.1-1.9,0.2-5.2c0.7-0.4,1.6-0.3,2.2,0.2c-0.4,1.6-0.6,3.3-0.5,5
			c0,1.6,0.4,2.4,1.2,2.4c0.6,0,1-0.5,1.4-1.5c0.2-0.7,0.4-1.5,0.3-2.2v-2.5L69.8,59c0.4-0.2,0.8-0.4,1.2-0.4
			C71.4,58.3,71.8,58.4,72.1,58.7z"/>
	</g>
</g>
</svg>
