<svg xmlns="http://www.w3.org/2000/svg" viewBox="0 0 197.66 169.41"><defs><style>.cls-1{stroke:#000;stroke-miterlimit:10;}</style></defs><g id="Layer_2" data-name="Layer 2"><g id="Prosperity"><polygon class="cls-1" points="109.83 168.49 107.93 157.47 116.07 149.79 104.84 148.03 99.83 137.96 94.79 147.89 83.56 149.33 91.68 157.23 89.74 168.2 99.8 163.15 109.83 168.49"/><polygon class="cls-1" points="1.12 73.91 11.84 77.09 15.11 87.78 21.67 78.5 32.92 78.47 26.25 69.56 29.93 58.85 19.25 62.62 10.28 56.02 10.35 67.28 1.12 73.91"/><polygon class="cls-1" points="58.42 124.75 51.92 133.85 40.74 133.46 47.39 142.68 43.75 153.32 54.35 149.92 63.28 156.89 63.19 145.57 72.35 139.23 61.69 135.63 58.42 124.75"/><polygon class="cls-1" points="158.28 147.76 151.79 138.66 155.8 128.22 144.92 131.49 136.03 124.59 135.8 135.72 126.3 141.89 137.04 145.49 140.05 156.22 146.92 147.31 158.28 147.76"/><polygon class="cls-1" points="13.34 118.22 24.07 115.05 32.63 122.23 33.08 110.88 42.5 104.73 32.05 100.88 29.3 89.89 22.4 98.87 11.28 98.23 17.47 107.63 13.34 118.22"/><polygon class="cls-1" points="165.75 121.95 173.74 114.13 184.68 116.49 179.76 106.24 185.22 96.4 174.18 97.88 166.62 89.45 164.72 100.61 154.59 105.24 164.44 110.66 165.75 121.95"/><polygon class="cls-1" points="165.31 60.35 170.83 70.08 165.76 80.05 176.92 77.91 185.04 85.7 186.43 74.65 196.51 69.5 186.21 64.8 184.32 53.83 176.56 61.98 165.31 60.35"/><circle class="cls-1" cx="100.28" cy="19.5" r="19"/><path class="cls-1" d="M132.06,98.5A47.9,47.9,0,0,0,134.28,84c0-22.37-15-40.5-33.5-40.5S67.28,61.63,67.28,84A47.9,47.9,0,0,0,69.5,98.5Z"/></g></g></svg>