<svg xmlns="http://www.w3.org/2000/svg" viewBox="0 0 167.87 128.29"><defs><style>.cls-1{fill:#fff;}</style></defs><g id="Layer_2" data-name="Layer 2"><g id="Vitality_White" data-name="Vitality White"><path class="cls-1" d="M85.44,74.45,52.91,41.92C27.19,16.2,59.71-16.33,85.44,9.39,110.7-15.87,143.23,16.65,118,41.92Z"/><path class="cls-1" d="M85.44,126.92l-.88-.66c0,.2.06.35.08.46Z"/><path class="cls-1" d="M69.24,80.61C50.05,56.79,12.83,54.5,8.58,54.32l74.75,74C83.37,114.44,80.92,95.12,69.24,80.61Z"/><path class="cls-1" d="M.26,42.92H0s-.73,38.54,22.58,61.89,61.86,22.68,61.86,22.68v-.14C23.43,91.85,1.69,46.05.26,42.92Z"/><path class="cls-1" d="M98.63,80.61C117.82,56.79,155,54.5,159.29,54.32l-74.75,74C84.51,114.44,87,95.12,98.63,80.61Z"/><path class="cls-1" d="M167.61,42.92h.26s.74,38.54-22.58,61.89-61.85,22.68-61.85,22.68v-.14C144.44,91.85,166.18,46.05,167.61,42.92Z"/></g></g></svg>