<svg xmlns="http://www.w3.org/2000/svg" xmlns:xlink="http://www.w3.org/1999/xlink" viewBox="0 0 168.87 129.99"><defs><style>.cls-1,.cls-2{stroke:#000;stroke-miterlimit:10;}.cls-2{fill:url(#linear-gradient);}</style><linearGradient id="linear-gradient" x1="85.09" y1="126.74" x2="85.74" y2="127.58" gradientUnits="userSpaceOnUse"><stop offset="0" stop-color="#fff"/><stop offset="1"/></linearGradient></defs><g id="Layer_2" data-name="Layer 2"><g id="Vitality"><path class="cls-1" d="M85.94,75,53.41,42.42C27.69,16.7,60.21-15.83,85.94,9.89c25.26-25.26,57.79,7.26,32.52,32.53Z"/><path class="cls-2" d="M85.94,127.42l-.88-.66c0,.2.06.35.08.46Z"/><path class="cls-1" d="M69.74,81.11C50.55,57.29,13.33,55,9.08,54.82l74.75,74C83.87,114.94,81.42,95.62,69.74,81.11Z"/><path class="cls-1" d="M.76,43.42H.5S-.23,82,23.08,105.31,84.94,128,84.94,128v-.14C23.93,92.35,2.19,46.55.76,43.42Z"/><path class="cls-1" d="M99.13,81.11C118.32,57.29,155.54,55,159.79,54.82L85,128.79C85,114.94,87.46,95.62,99.13,81.11Z"/><path class="cls-1" d="M168.11,43.42h.26s.74,38.54-22.58,61.89S83.94,128,83.94,128v-.14C144.94,92.35,166.68,46.55,168.11,43.42Z"/></g></g></svg>