<?xml version="1.0" encoding="utf-8"?>
<!-- Generator: Adobe Illustrator 24.2.1, SVG Export Plug-In . SVG Version: 6.00 Build 0)  -->
<svg version="1.1" id="Layer_1" xmlns="http://www.w3.org/2000/svg" xmlns:xlink="http://www.w3.org/1999/xlink" x="0px" y="0px"
	 viewBox="0 0 176.8 183.5" style="enable-background:new 0 0 176.8 183.5;" xml:space="preserve">
<style type="text/css">
	.st0{fill:#FFFFFF;}
</style>
<g>
	<path d="M166.3,59.4c0,0-24.2,10.7-50.8,25.8c-10.6,6-18.3,16.3-23.6,25.8v3L166.3,59.4z"/>
	<path d="M131.8,100.5c28.6-11.7,39.6-44,39.6-44S120.1,99.9,92,114.3v0.3C105.5,110.4,118.8,105.8,131.8,100.5z"/>
	<path d="M84.2,108L84.2,108c0,0-0.2,0.1-0.6,0.2c-0.9,0.3-2.3,0.9-4.3,1.5c4.1,0.1,6.7-0.1,6.7-0.1C81,98.8,71.7,90,59.9,84.7
		c-19.9-8.9-45.8-7.5-45.8-7.5c2.7,5.9,6.8,11.2,11.8,15.6c7-0.8,14.8-1.1,22.4-0.1c13.3,1.6,23.3,6.5,29.3,10.3
		c4.6,2.6,7,4.7,7,4.7S84.5,107.9,84.2,108z"/>
	<path d="M79.3,109.7c-0.3,0-0.7,0-1,0c2.6-0.6,4.4-1.2,5.3-1.5c0.2-0.1,0.4-0.2,0.6-0.2c-0.3-0.3-2.5-2.3-6.6-4.9
		c-6.4-3.6-16.8-8.2-30.3-9.2c-23.2-1.7-46.5,7.9-46.5,7.9s14.2,12.3,37.4,13.9C54.6,116.9,71.1,112.4,79.3,109.7z"/>
	<polygon points="54.2,180.3 124.8,180.3 135.6,140.8 43.4,140.8 	"/>
	<path d="M92,114.3V114l-1,0.8C91.3,114.6,91.6,114.4,92,114.3z"/>
	<path d="M85.6,16.2L85.6,16.2h-7.8L71,25.9h7.8L85.6,16.2L85.6,16.2z"/>
	<polygon points="100.5,16.5 88.5,16.5 82,25.6 107,25.6 	"/>
	<path d="M78.8,35.9L78.8,35.9L78.8,35.9l-6.6-0.3l16.7,32.1l-9.4-30.3L78.8,35.9z"/>
	<polygon points="105.9,35.4 82.7,35.4 89.9,68.3 	"/>
	<path d="M90.7,114.9l-1.3,0.9c0.8-1.6,1.6-3.2,2.5-4.9V84c24.4-1.1,43.7-18.8,43.7-40.4c0-22.3-20.7-40.5-46.2-40.5
		S43.2,21.2,43.2,43.6C43.3,65.2,62.6,82.9,87,84v38.7H42V135h95v-12.3H92v-8.2C91.6,114.7,91.2,114.8,90.7,114.9z M76.2,14.9h26.6
		l8.9,12.8H67.3L76.2,14.9z M68.3,32.4h42.4L89.5,73.2L68.3,32.4z"/>
	<path d="M90.5,115c0.1,0,0.2,0,0.2-0.1l0.2-0.1C90.8,114.9,90.7,114.9,90.5,115z"/>
</g>
<g>
	<path class="st0" d="M-94.7,59.5c0,0-24.2,10.7-50.8,25.8c-10.6,6-18.3,16.3-23.6,25.8v3L-94.7,59.5z"/>
	<path class="st0" d="M-129.2,100.6c28.6-11.7,39.6-44,39.6-44s-51.3,43.4-79.4,57.8v0.3C-155.5,110.4-142.2,105.9-129.2,100.6z"/>
	<path class="st0" d="M-176.8,108.1L-176.8,108.1c0,0-0.2,0.1-0.6,0.2c-0.9,0.3-2.3,0.9-4.3,1.5c4.1,0.1,6.7-0.1,6.7-0.1
		c-5-10.8-14.3-19.6-26.1-24.9c-19.9-8.9-45.8-7.5-45.8-7.5c2.7,5.9,6.8,11.2,11.8,15.6c7-0.8,14.8-1.1,22.4-0.1
		c13.3,1.6,23.3,6.5,29.3,10.3c4.6,2.6,7,4.7,7,4.7S-176.5,107.9-176.8,108.1z"/>
	<path class="st0" d="M-181.7,109.8c-0.3,0-0.7,0-1,0c2.6-0.6,4.4-1.2,5.3-1.5c0.2-0.1,0.4-0.2,0.6-0.2c-0.3-0.3-2.5-2.3-6.6-4.9
		c-6.4-3.6-16.8-8.2-30.3-9.2c-23.2-1.7-46.5,7.9-46.5,7.9s14.2,12.3,37.4,13.9C-206.4,116.9-189.9,112.4-181.7,109.8z"/>
	<polygon class="st0" points="-206.8,180.4 -136.2,180.4 -125.4,140.9 -217.6,140.9 	"/>
	<path class="st0" d="M-169,114.4v-0.3l-1,0.8C-169.7,114.6-169.4,114.4-169,114.4z"/>
	<path class="st0" d="M-175.4,16.2L-175.4,16.2h-7.8l-6.8,9.7h7.8L-175.4,16.2L-175.4,16.2z"/>
	<polygon class="st0" points="-160.5,16.5 -172.5,16.5 -179,25.6 -154,25.6 	"/>
	<path class="st0" d="M-182.2,36L-182.2,36L-182.2,36l-6.6-0.3l16.7,32.1l-9.4-30.3L-182.2,36z"/>
	<polygon class="st0" points="-155.1,35.5 -178.3,35.5 -171.1,68.4 	"/>
	<path class="st0" d="M-170.3,114.9l-1.3,0.9c0.8-1.6,1.6-3.2,2.5-4.9V84.1c24.4-1.1,43.7-18.8,43.7-40.4
		c0-22.3-20.7-40.5-46.2-40.5s-46.2,18.1-46.2,40.5c0.1,21.6,19.4,39.3,43.8,40.4v38.7h-45v12.3h95v-12.3h-45v-8.2
		C-169.4,114.8-169.8,114.9-170.3,114.9z M-184.8,14.9h26.6l8.9,12.8h-44.4L-184.8,14.9z M-192.7,32.5h42.4l-21.2,40.8L-192.7,32.5z
		"/>
	<path class="st0" d="M-170.5,115.1c0.1,0,0.2,0,0.2-0.1l0.2-0.1C-170.2,114.9-170.3,114.9-170.5,115.1z"/>
</g>
</svg>
