<svg xmlns="http://www.w3.org/2000/svg" viewBox="0 0 170.6 177.2"><defs><style>.cls-1{fill:#fff;}</style></defs><g id="Layer_2" data-name="Layer 2"><g id="Layer_1-2" data-name="Layer 1"><path class="cls-1" d="M165.5,56.3S141.3,67,114.7,82.1c-10.6,6-18.3,16.3-23.6,25.8v3Z"/><path class="cls-1" d="M131,97.4c28.6-11.7,39.6-44,39.6-44s-51.3,43.4-79.4,57.8v.3C104.7,107.2,118,102.7,131,97.4Z"/><path class="cls-1" d="M83.4,104.9h0a3.22,3.22,0,0,1-.6.2c-.9.3-2.3.9-4.3,1.5,4.1.1,6.7-.1,6.7-.1-5-10.8-14.3-19.6-26.1-24.9-19.9-8.9-45.8-7.5-45.8-7.5A47.07,47.07,0,0,0,25.1,89.7a93.09,93.09,0,0,1,22.4-.1A70.81,70.81,0,0,1,76.8,99.9a45.71,45.71,0,0,1,7,4.7A3,3,0,0,1,83.4,104.9Z"/><path class="cls-1" d="M78.5,106.6h-1a54.89,54.89,0,0,0,5.3-1.5,1.42,1.42,0,0,1,.6-.2,45.17,45.17,0,0,0-6.6-4.9,72.84,72.84,0,0,0-30.3-9.2C23.3,89.1,0,98.7,0,98.7S14.2,111,37.4,112.6C53.8,113.7,70.3,109.2,78.5,106.6Z"/><polygon class="cls-1" points="53.4 177.2 124 177.2 134.8 137.7 42.6 137.7 53.4 177.2"/><path class="cls-1" d="M91.2,111.2v-.3l-1,.8A1.39,1.39,0,0,1,91.2,111.2Z"/><path class="cls-1" d="M84.8,13H77l-6.8,9.7H78L84.8,13Z"/><polygon class="cls-1" points="99.7 13.3 87.7 13.3 81.2 22.4 106.2 22.4 99.7 13.3"/><path class="cls-1" d="M78,32.8h0l-6.6-.3L88.1,64.6,78.7,34.3Z"/><polygon class="cls-1" points="105.1 32.3 81.9 32.3 89.1 65.2 105.1 32.3"/><path class="cls-1" d="M89.9,111.7l-1.3.9c.8-1.6,1.6-3.2,2.5-4.9V80.9c24.4-1.1,43.7-18.8,43.7-40.4C134.8,18.2,114.1,0,88.6,0S42.4,18.1,42.4,40.5c.1,21.6,19.4,39.3,43.8,40.4v38.7h-45v12.3h95V119.6h-45v-8.2A2.77,2.77,0,0,1,89.9,111.7ZM75.4,11.7H102l8.9,12.8H66.5ZM67.5,29.3h42.4L88.7,70.1Z"/><path class="cls-1" d="M89.7,111.9c.1,0,.2,0,.2-.1l.2-.1C90,111.7,89.9,111.7,89.7,111.9Z"/></g></g></svg>